<svg width="747" height="547" viewBox="0 0 747 547" fill="none" xmlns="http://www.w3.org/2000/svg">
    <g id="Illustration">
        <g id="Shape">
            <g id="Group 59">
                <path id="Path" opacity="0.0845424"
                      d="M674.32 166.249C683.698 153.731 701.453 151.18 713.979 160.552C726.379 169.83 729.005 187.315 719.957 199.81L719.679 200.187L645.379 299.374C635.916 312.007 618.34 315.21 605.04 306.802L604.639 306.544L557.865 275.948L510.705 344.593C501.937 357.356 484.564 360.694 471.702 352.171L471.313 351.909C458.543 343.146 455.204 325.783 463.732 312.928L463.994 312.54L525.793 222.586C534.999 209.185 553.141 205.492 566.841 214.144L567.255 214.41L614.898 245.575L674.32 166.249Z"
                      fill="#7367F0"/>
                <path id="Path_2" opacity="0.0845424"
                      d="M431.118 5.29424C433.496 1.83984 438.232 0.961284 441.696 3.33194C445.115 5.67139 446.018 10.3009 443.756 13.7421L443.664 13.8791L425.148 40.779C422.433 44.5698 417.181 45.4829 413.345 42.8606L413.208 42.7654L402.574 35.1946L391.048 53.4538C388.839 56.9536 384.234 58.0368 380.696 55.9185L380.557 55.8332C377.047 53.6305 375.96 49.0392 378.085 45.5109L378.17 45.3722L393.455 21.158C395.973 17.169 401.257 15.9705 405.258 18.4812L405.467 18.6168L405.673 18.7584L416.53 26.4883L431.118 5.29424Z"
                      fill="#7367F0"/>
                <path id="+" opacity="0.070266" fill-rule="evenodd" clip-rule="evenodd"
                      d="M633.404 131.308C634.784 131.308 635.904 130.189 635.904 128.808V110.831H653.893C655.273 110.831 656.393 109.712 656.393 108.331V99.6761C656.393 98.2954 655.273 97.1761 653.893 97.1761H635.904V79.0664C635.904 77.6857 634.784 76.5664 633.404 76.5664H624.608C623.227 76.5664 622.108 77.6857 622.108 79.0664V97.1761H604.119C602.738 97.1761 601.619 98.2954 601.619 99.6761V108.331C601.619 109.712 602.738 110.831 604.119 110.831H622.108V128.808C622.108 130.189 623.227 131.308 624.608 131.308H633.404Z"
                      fill="#00CFE8"/>
                <path id="Oval" opacity="0.0739397" fill-rule="evenodd" clip-rule="evenodd"
                      d="M92.602 22C143.193 22 184.206 62.9886 184.206 113.551C184.206 164.113 143.193 205.101 92.602 205.101C42.0105 205.101 0.998047 164.113 0.998047 113.551C0.998047 62.9886 42.0105 22 92.602 22ZM92.602 67.3034C67.0455 67.3034 46.3278 88.0089 46.3278 113.551C46.3278 139.092 67.0455 159.798 92.602 159.798C118.159 159.798 138.876 139.092 138.876 113.551C138.876 88.0089 118.159 67.3034 92.602 67.3034Z"
                      fill="#00CFE8"/>
            </g>
        </g>
        <g id="Meeting">
            <g id="Group 63">
                <path id="Rectangle" fill-rule="evenodd" clip-rule="evenodd"
                      d="M61.5957 103C61.5957 94.1634 68.7591 87 77.5957 87H547.724C556.561 87 563.724 94.1634 563.724 103V307.224C563.724 316.061 556.561 323.224 547.724 323.224H77.5957C68.7592 323.224 61.5957 316.061 61.5957 307.224V103Z"
                      fill="#141A2B"/>
                <path id="Rectangle_2" fill-rule="evenodd" clip-rule="evenodd"
                      d="M69.1465 103C69.1465 94.1634 76.3099 87 85.1465 87H547.724C556.561 87 563.724 94.1634 563.724 103V307.224C563.724 316.061 556.561 323.224 547.724 323.224H85.1465C76.31 323.224 69.1465 316.061 69.1465 307.224V103Z"
                      fill="#181F33"/>
                <path id="Rectangle_3" fill-rule="evenodd" clip-rule="evenodd"
                      d="M76.6973 104.559C76.6973 99.0362 81.1744 94.5591 86.6973 94.5591H546.173C551.696 94.5591 556.173 99.0362 556.173 104.559V305.665C556.173 311.188 551.696 315.665 546.173 315.665H86.6973C81.1744 315.665 76.6973 311.188 76.6973 305.665L76.6973 104.559Z"
                      fill="#283046"/>
                <path id="Rectangle_4" fill-rule="evenodd" clip-rule="evenodd"
                      d="M275.85 301.823C275.85 298.509 278.536 295.823 281.85 295.823H351.021C354.334 295.823 357.021 298.509 357.021 301.823V315.665H275.85V301.823Z"
                      fill="#D4EFFF"/>
                <path id="Rectangle_5"
                      d="M283.4 301.823C283.4 298.509 286.087 295.823 289.4 295.823H358.572C361.885 295.823 364.572 298.509 364.572 301.823V323.225H283.4V301.823Z"
                      fill="#91D6FF"/>
            </g>
            <g id="ElementCard20">
                <g id="Rectangle_6" filter="url(#filter0_d)">
                    <path fill-rule="evenodd" clip-rule="evenodd"
                          d="M90.8555 109.397C90.8555 106.421 93.2681 104.008 96.2442 104.008H221.268C224.244 104.008 226.657 106.421 226.657 109.397V150.047C226.657 153.023 224.244 155.436 221.268 155.436H96.2442C93.2681 155.436 90.8555 153.023 90.8555 150.047V109.397Z"
                          fill="#313A53"/>
                </g>
                <path id="Rectangle_7" opacity="0.454078" fill-rule="evenodd" clip-rule="evenodd"
                      d="M131.037 134.559C131.037 133.715 131.721 133.031 132.565 133.031H157.992C158.836 133.031 159.52 133.715 159.52 134.559V134.559C159.52 135.403 158.836 136.087 157.992 136.087H132.565C131.721 136.087 131.037 135.403 131.037 134.559V134.559Z"
                      fill="#C7C1FF"/>
                <path id="Rectangle_8" fill-rule="evenodd" clip-rule="evenodd"
                      d="M131.037 125.903C131.037 125.059 131.721 124.375 132.565 124.375H147.82C148.663 124.375 149.347 125.059 149.347 125.903V125.903C149.347 126.747 148.663 127.431 147.82 127.431H132.565C131.721 127.431 131.037 126.747 131.037 125.903V125.903Z"
                      fill="#8478FF"/>
                <g id="Group 9">
                    <path id="Path_3" fill-rule="evenodd" clip-rule="evenodd"
                          d="M205.813 122.284C207.983 119.429 212.053 118.876 214.904 121.049C215.56 121.548 216.115 122.169 216.539 122.876C216.758 123.241 216.639 123.714 216.275 123.933C215.911 124.151 215.439 124.033 215.22 123.668C214.897 123.128 214.473 122.655 213.973 122.274C211.842 120.651 208.819 121.022 207.14 123.085L207.037 123.216L204.652 126.353C200.927 131.254 194.624 133.414 188.693 131.848L188.439 131.779L186.521 131.237C186.397 131.202 186.273 131.171 186.147 131.143C182.639 130.369 179.168 132.541 178.309 136.011L178.269 136.182L177.873 137.98C177.733 138.617 177.462 139.217 177.076 139.741C175.551 141.817 172.633 142.262 170.559 140.735C170.217 140.483 170.144 140.001 170.396 139.659C170.647 139.316 171.129 139.243 171.471 139.495C172.86 140.518 174.815 140.22 175.837 138.829C176.063 138.521 176.231 138.175 176.332 137.808L176.371 137.649L176.767 135.851C177.735 131.451 182.083 128.67 186.478 129.639L186.709 129.694L186.938 129.755L188.857 130.297C194.172 131.799 199.857 129.946 203.272 125.622L203.428 125.421L205.813 122.284Z"
                          fill="#8478FF"/>
                    <path id="Path_4" fill-rule="evenodd" clip-rule="evenodd"
                          d="M198.882 121.353C200.452 117.857 204.557 116.296 208.049 117.869C208.751 118.184 209.395 118.615 209.956 119.142C211.275 120.384 212.497 122.347 213.642 125.035C213.808 125.426 213.627 125.878 213.236 126.045C212.845 126.212 212.394 126.03 212.227 125.639C211.158 123.13 210.043 121.338 208.902 120.264C208.466 119.854 207.965 119.519 207.419 119.273C204.75 118.072 201.623 119.22 200.353 121.838L200.285 121.984L199.79 123.086C199.675 123.343 199.542 123.591 199.394 123.83C197.566 126.766 193.707 127.663 190.774 125.834C190.425 125.616 190.042 125.458 189.641 125.366C187.689 124.919 185.745 126.102 185.23 128.022L185.197 128.157L184.341 131.899C184.083 133.026 183.535 134.067 182.753 134.917C180.312 137.571 176.214 137.785 173.513 135.434L173.369 135.305L169.883 132.092C169.57 131.804 169.55 131.317 169.838 131.004C170.107 130.712 170.548 130.675 170.86 130.905L170.925 130.959L174.411 134.173C176.484 136.083 179.713 135.95 181.621 133.874C182.176 133.271 182.577 132.543 182.792 131.754L182.841 131.555L183.697 127.813C184.344 124.985 187.159 123.217 189.984 123.865C190.481 123.979 190.958 124.165 191.4 124.416L191.588 124.527C193.8 125.907 196.71 125.23 198.088 123.016C198.163 122.896 198.232 122.772 198.296 122.646L198.387 122.455L198.882 121.353Z"
                          fill="#C7C1FF"/>
                </g>
                <ellipse id="Oval_2" cx="113.489" cy="130.231" rx="10.4267" ry="10.4383" fill="#8478FF"/>
            </g>
            <g id="ElementCard3">
                <g id="Rectangle_9" filter="url(#filter1_d)">
                    <path fill-rule="evenodd" clip-rule="evenodd"
                          d="M90.8555 167.592C90.8555 164.83 93.094 162.592 95.8555 162.592H254.805C257.566 162.592 259.805 164.83 259.805 167.592V300.271C259.805 303.033 257.566 305.271 254.805 305.271H95.8555C93.094 305.271 90.8555 303.033 90.8555 300.271V167.592Z"
                          fill="#313A53"/>
                </g>
                <mask id="mask0" mask-type="alpha" maskUnits="userSpaceOnUse" x="90" y="162" width="170" height="144">
                    <path id="Rectangle_10" fill-rule="evenodd" clip-rule="evenodd"
                          d="M90.8555 167.592C90.8555 164.83 93.094 162.592 95.8555 162.592H254.805C257.566 162.592 259.805 164.83 259.805 167.592V300.271C259.805 303.033 257.566 305.271 254.805 305.271H95.8555C93.094 305.271 90.8555 303.033 90.8555 300.271V167.592Z"
                          fill="white"/>
                </mask>
                <g mask="url(#mask0)">
                    <g id="Path 3" filter="url(#filter2_d)">
                        <path
                            d="M113.508 272.2C113.508 272.2 133.593 266.426 142.449 254.639C151.305 242.853 154.291 231.428 169.522 231.428C184.754 231.428 186.706 248.926 203.172 248.926C219.638 248.926 220.538 226.612 226.011 217.752C231.483 208.892 240.928 208.892 240.928 208.892"
                            stroke="#8EEAF6" stroke-width="4.004" stroke-linecap="round"/>
                    </g>
                    <path id="Path 3_2" opacity="0.414737" fill-rule="evenodd" clip-rule="evenodd"
                          d="M113.508 270.982C113.508 270.982 133.593 265.232 142.449 253.497C151.305 241.761 154.291 230.386 169.522 230.386C184.754 230.386 186.706 247.808 203.172 247.808C219.638 247.808 220.538 225.59 226.011 216.769C231.483 207.947 240.928 207.947 240.928 207.947V282.348C240.928 284.049 239.549 285.428 237.848 285.428H116.588C114.887 285.428 113.508 284.049 113.508 282.348V270.982Z"
                          fill="#CEF9FF"/>
                    <rect id="Rectangle_11" x="104.07" y="176.765" width="52.8556" height="5.66939" rx="2.83469"
                          fill="#8EEAF6"/>
                    <path id="Rectangle_12" fill-rule="evenodd" clip-rule="evenodd"
                          d="M104.07 193.773C104.07 192.208 105.339 190.939 106.905 190.939H125.776C127.341 190.939 128.61 192.208 128.61 193.773V193.773C128.61 195.339 127.341 196.608 125.776 196.608H106.905C105.339 196.608 104.07 195.339 104.07 193.773V193.773Z"
                          fill="#8EEAF6" fill-opacity="0.401934"/>
                    <ellipse id="Oval_3" cx="227.241" cy="180.073" rx="3.30348" ry="3.30714" fill="#8EEAF6"
                             fill-opacity="0.451705"/>
                    <ellipse id="Oval_4" cx="236.68" cy="180.073" rx="3.30348" ry="3.30714" fill="#8EEAF6"
                             fill-opacity="0.451705"/>
                    <ellipse id="Oval_5" cx="246.118" cy="180.073" rx="3.30348" ry="3.30714" fill="#8EEAF6"
                             fill-opacity="0.451705"/>
                </g>
            </g>
            <g id="ElementCard11">
                <g id="Rectangle_13" filter="url(#filter3_d)">
                    <path fill-rule="evenodd" clip-rule="evenodd"
                          d="M286.232 124.721C286.232 120.588 289.583 117.237 293.717 117.237H518.929C523.063 117.237 526.414 120.588 526.414 124.721V275.237C526.414 279.371 523.063 282.721 518.929 282.721H293.717C289.583 282.721 286.232 279.371 286.232 275.237V124.721Z"
                          fill="#313A53"/>
                </g>
                <g id="Group 26">
                    <path id="Path_5" fill-rule="evenodd" clip-rule="evenodd"
                          d="M326.852 202.101V261.287H318.021V202.101H326.852Z" fill="#E7E4FF"/>
                    <path id="Path_6" fill-rule="evenodd" clip-rule="evenodd"
                          d="M326.852 216.245V261.287H318.021V216.245H326.852Z" fill="#C7C1FF"/>
                    <path id="Path_7" fill-rule="evenodd" clip-rule="evenodd"
                          d="M326.852 244.533V261.287H318.021V244.533H326.852Z" fill="#8478FF"/>
                </g>
                <g id="Group 26_2">
                    <path id="Path_8" fill-rule="evenodd" clip-rule="evenodd"
                          d="M348.043 187.957V261.287H339.213V187.957H348.043Z" fill="#E7E4FF"/>
                    <path id="Path_9" fill-rule="evenodd" clip-rule="evenodd"
                          d="M348.043 209.173V261.287H339.213V209.173H348.043Z" fill="#C7C1FF"/>
                    <path id="Path_10" fill-rule="evenodd" clip-rule="evenodd"
                          d="M348.043 244.533V261.287H339.213V244.533H348.043Z" fill="#8478FF"/>
                </g>
                <g id="Group 26_3">
                    <path id="Path_11" fill-rule="evenodd" clip-rule="evenodd"
                          d="M369.236 198.565V261.287H360.406V198.565H369.236Z" fill="#E7E4FF"/>
                    <path id="Path_12" fill-rule="evenodd" clip-rule="evenodd"
                          d="M369.236 219.781V261.287H360.406V219.781H369.236Z" fill="#C7C1FF"/>
                    <path id="Path_13" fill-rule="evenodd" clip-rule="evenodd"
                          d="M369.236 248.069V261.287H360.406V248.069H369.236Z" fill="#8478FF"/>
                </g>
                <g id="Group 26_4">
                    <path id="Path_14" fill-rule="evenodd" clip-rule="evenodd"
                          d="M390.428 180.885V261.287H381.598V180.885H390.428Z" fill="#E7E4FF"/>
                    <path id="Path_15" fill-rule="evenodd" clip-rule="evenodd"
                          d="M390.428 202.101V261.287H381.598V202.101H390.428Z" fill="#C7C1FF"/>
                    <path id="Path_16" fill-rule="evenodd" clip-rule="evenodd"
                          d="M390.428 230.389V261.287H381.598V230.389H390.428Z" fill="#8478FF"/>
                </g>
                <g id="Group 26_5">
                    <path id="Path_17" fill-rule="evenodd" clip-rule="evenodd"
                          d="M411.621 166.741V261.287H402.791V166.741H411.621Z" fill="#E7E4FF"/>
                    <path id="Path_18" fill-rule="evenodd" clip-rule="evenodd"
                          d="M411.621 195.029V261.287H402.791V195.029H411.621Z" fill="#C7C1FF"/>
                    <path id="Path_19" fill-rule="evenodd" clip-rule="evenodd"
                          d="M411.621 237.461V261.287H402.791V237.461H411.621Z" fill="#8478FF"/>
                </g>
                <g id="Group 26_6">
                    <path id="Path_20" fill-rule="evenodd" clip-rule="evenodd"
                          d="M432.815 187.957V261.287H423.984V187.957H432.815Z" fill="#E7E4FF"/>
                    <path id="Path_21" fill-rule="evenodd" clip-rule="evenodd"
                          d="M432.815 209.173V261.287H423.984V209.173H432.815Z" fill="#C7C1FF"/>
                    <path id="Path_22" fill-rule="evenodd" clip-rule="evenodd"
                          d="M432.815 241.704V261.287H423.984V241.704H432.815Z" fill="#8478FF"/>
                </g>
                <g id="Group 26_7">
                    <path id="Path_23" fill-rule="evenodd" clip-rule="evenodd"
                          d="M454.006 195.029V261.287H445.176V195.029H454.006Z" fill="#E7E4FF"/>
                    <path id="Path_24" fill-rule="evenodd" clip-rule="evenodd"
                          d="M454.006 209.173V261.287H445.176V209.173H454.006Z" fill="#C7C1FF"/>
                    <path id="Path_25" fill-rule="evenodd" clip-rule="evenodd"
                          d="M454.006 236.754V261.287H445.176V236.754H454.006Z" fill="#8478FF"/>
                </g>
                <g id="Group 26_8">
                    <path id="Path_26" fill-rule="evenodd" clip-rule="evenodd"
                          d="M475.199 180.885V261.287H466.369V180.885H475.199Z" fill="#E7E4FF"/>
                    <path id="Path_27" fill-rule="evenodd" clip-rule="evenodd"
                          d="M475.199 209.173V261.287H466.369V209.173H475.199Z" fill="#C7C1FF"/>
                    <path id="Path_28" fill-rule="evenodd" clip-rule="evenodd"
                          d="M475.199 243.825V261.287H466.369V243.825H475.199Z" fill="#8478FF"/>
                </g>
                <g id="Group 26_9">
                    <path id="Path_29" fill-rule="evenodd" clip-rule="evenodd"
                          d="M496.391 195.029V261.287H487.561V195.029H496.391Z" fill="#E7E4FF"/>
                    <path id="Path_30" fill-rule="evenodd" clip-rule="evenodd"
                          d="M496.391 209.173V261.287H487.561V209.173H496.391Z" fill="#C7C1FF"/>
                    <path id="Path_31" fill-rule="evenodd" clip-rule="evenodd"
                          d="M496.391 243.826V261.287H487.561V243.826H496.391Z" fill="#8478FF"/>
                </g>
                <path id="Rectangle_14" opacity="0.57573" fill-rule="evenodd" clip-rule="evenodd"
                      d="M315.195 147.647C315.195 146.475 316.145 145.525 317.317 145.525H387.954C389.125 145.525 390.075 146.475 390.075 147.647V147.647C390.075 148.818 389.125 149.768 387.954 149.768H317.317C316.145 149.768 315.195 148.818 315.195 147.647V147.647Z"
                      fill="#8C81FF"/>
                <rect id="Rectangle_15" x="315.195" y="133.502" width="39.5593" height="4.2432" rx="2.1216"
                      fill="#8478FF"/>
            </g>
            <g id="Chair4">
                <path id="Path_32" fill-rule="evenodd" clip-rule="evenodd"
                      d="M559.039 451.882L570.482 542.29L564.483 542.21L553.04 452.728L559.039 451.882Z"
                      fill="#BFE7FF"/>
                <path id="Path_33" fill-rule="evenodd" clip-rule="evenodd"
                      d="M481.617 466.093C476.401 466.093 472.172 461.864 472.172 456.648V456.648C472.172 451.431 476.401 447.203 481.617 447.203H519.379C525.101 447.203 529.883 442.849 530.419 437.153L536.457 372.96C536.992 367.263 541.774 362.91 547.496 362.91H571.196C577.654 362.91 582.746 368.408 582.251 374.848L576.027 455.854C575.583 461.632 570.766 466.093 564.972 466.093H481.617Z"
                      fill="#91D6FF"/>
                <path id="Combined Shape" fill-rule="evenodd" clip-rule="evenodd"
                      d="M472.174 456.567C472.226 456.568 472.278 456.568 472.33 456.568H555.46C561.253 456.568 566.07 452.108 566.515 446.332L572.735 365.614C572.802 364.734 572.766 363.872 572.636 363.038C572.084 362.954 571.519 362.91 570.942 362.91H547.353C541.633 362.91 536.852 367.262 536.314 372.957L530.281 436.916C529.744 442.611 524.963 446.963 519.242 446.963H481.593C476.39 446.963 472.172 451.181 472.172 456.384C472.172 456.445 472.172 456.506 472.174 456.567Z"
                      fill="#BFE7FF"/>
            </g>
            <g id="Vase2">
                <g id="Group 39">
                    <path id="Rectangle_21" fill-rule="evenodd" clip-rule="evenodd"
                          d="M86.3628 445.346V445.346C94.6288 441.634 104.336 445.361 107.996 453.65L110.858 460.135V460.135C102.592 463.847 92.8847 460.12 89.2255 451.831L86.3628 445.346Z"
                          fill="#02D3AF"/>
                    <path id="Path_76" fill-rule="evenodd" clip-rule="evenodd"
                          d="M98.1752 449.302C106.425 455.172 111.774 461.714 114.239 468.926C116.716 476.173 117.731 488.321 117.27 505.347C117.263 505.61 117.469 505.83 117.73 505.837C117.992 505.844 118.21 505.637 118.217 505.373C118.681 488.241 117.658 475.996 115.134 468.614C112.599 461.197 107.122 454.5 98.7211 448.521C98.5074 448.369 98.212 448.421 98.0613 448.636C97.9105 448.852 97.9615 449.15 98.1752 449.302Z"
                          fill="#02B596"/>
                    <path id="Rectangle_22" fill-rule="evenodd" clip-rule="evenodd"
                          d="M156.488 441.32V441.32C148.354 437.494 138.659 441.022 134.886 449.182L131.673 456.133V456.133C139.807 459.959 149.502 456.431 153.275 448.271L156.488 441.32Z"
                          fill="#02D3AF"/>
                    <g id="Group 88">
                        <path id="Rectangle_23"
                              d="M91.4961 425.385V425.385C99.34 423.718 107.05 428.725 108.718 436.569L110.067 442.919V442.919C102.223 444.586 94.5131 439.579 92.8458 431.735L91.4961 425.385Z"
                              fill="#02D3AF"/>
                        <path id="Path_77" fill-rule="evenodd" clip-rule="evenodd"
                              d="M97.2643 430.452C103.31 434.672 107.399 439.223 109.544 444.099L109.676 444.406L109.809 444.729C112.007 450.185 115.645 464.475 120.705 487.545C120.761 487.802 121.014 487.966 121.27 487.91C121.525 487.854 121.686 487.599 121.63 487.342L121.003 484.496L120.271 481.202C115.7 460.761 112.418 448.281 110.41 443.715C108.187 438.662 103.981 433.981 97.8019 429.667C97.5865 429.517 97.2916 429.571 97.1431 429.787C96.9947 430.004 97.0489 430.301 97.2643 430.452Z"
                              fill="#02B596"/>
                    </g>
                    <path id="Rectangle_24" fill-rule="evenodd" clip-rule="evenodd"
                          d="M144.623 420.56V420.56C135.978 420.408 128.847 427.294 128.698 435.94L128.564 443.653V443.653C137.209 443.805 144.34 436.919 144.49 428.273L144.623 420.56Z"
                          fill="#02D3AF"/>
                    <path id="Path_78" fill-rule="evenodd" clip-rule="evenodd"
                          d="M138.951 423.662C133.39 431.822 129.326 439.699 126.763 447.293C124.203 454.874 121.65 466.581 119.1 482.424C119.058 482.684 119.233 482.93 119.491 482.972C119.75 483.014 119.993 482.837 120.035 482.577L120.348 480.651L120.563 479.353C122.93 465.186 125.296 454.6 127.659 447.601C130.193 440.095 134.217 432.295 139.731 424.203C139.879 423.985 139.825 423.688 139.609 423.539C139.394 423.389 139.099 423.444 138.951 423.662Z"
                          fill="#02B596"/>
                    <g id="Group 87">
                        <path id="Path_79" fill-rule="evenodd" clip-rule="evenodd"
                              d="M126.905 418.316C126.905 418.316 122.395 431.164 120.401 450.089C118.408 469.013 119.571 487.938 119.571 487.938L121.772 488.138C121.772 488.138 120.59 466.05 122.009 450.172C123.429 434.294 128.005 418.416 128.005 418.416L126.905 418.316Z"
                              fill="#02B596"/>
                        <ellipse id="Oval_6" cx="129.201" cy="411.952" rx="7.26372" ry="11.1372"
                                 transform="rotate(14 129.201 411.952)" fill="#C2FFF4"/>
                        <ellipse id="Oval_7" cx="129.347" cy="412.624" rx="5.05298" ry="7.26093"
                                 transform="rotate(14 129.347 412.624)" fill="#02D3AF"/>
                        <path id="Path_80" fill-rule="evenodd" clip-rule="evenodd"
                              d="M128.726 419.005L132.783 406.341C133.025 405.588 132.615 404.781 131.869 404.538C131.122 404.294 130.321 404.707 130.08 405.46L126.022 418.124C125.781 418.877 126.191 419.685 126.937 419.928C127.684 420.171 128.484 419.758 128.726 419.005Z"
                              fill="url(#paint7_linear)"/>
                    </g>
                    <g id="Group 87_2">
                        <path id="Path_81" fill-rule="evenodd" clip-rule="evenodd"
                              d="M104.95 405.586C104.95 405.586 110.778 417.892 114.739 436.505C118.7 455.117 119.521 474.06 119.521 474.06L117.354 474.489C117.354 474.489 116.22 452.399 113.149 436.756C110.077 421.113 103.867 405.801 103.867 405.801L104.95 405.586Z"
                              fill="#02B596"/>
                        <ellipse id="Oval_8" rx="7.26372" ry="11.1372"
                                 transform="matrix(-0.939693 0.34202 0.34202 0.939693 102.001 399.496)" fill="#C2FFF4"/>
                        <ellipse id="Oval_9" rx="5.05298" ry="7.26093"
                                 transform="matrix(-0.939693 0.34202 0.34202 0.939693 101.927 400.181)" fill="#02D3AF"/>
                        <path id="Path_82" fill-rule="evenodd" clip-rule="evenodd"
                              d="M103.214 406.462L97.8542 394.291C97.5356 393.568 97.8585 392.722 98.5755 392.402C99.2924 392.082 100.132 392.409 100.451 393.133L105.81 405.303C106.128 406.027 105.806 406.873 105.089 407.193C104.372 407.513 103.532 407.185 103.214 406.462Z"
                              fill="url(#paint8_linear)"/>
                    </g>
                    <path id="Path_83" fill-rule="evenodd" clip-rule="evenodd"
                          d="M152.02 443.348C140.792 447.742 132.964 452.819 128.537 458.599C124.111 464.378 121.186 473.341 119.744 485.49C119.713 485.752 119.898 485.99 120.157 486.021C120.417 486.053 120.653 485.866 120.684 485.604C122.108 473.611 124.982 464.803 129.287 459.183C133.591 453.563 141.282 448.575 152.362 444.239C152.606 444.143 152.727 443.867 152.632 443.621C152.538 443.375 152.264 443.253 152.02 443.348Z"
                          fill="#02B596"/>
                </g>
                <g id="Group 38">
                    <path id="Path 151" fill-rule="evenodd" clip-rule="evenodd"
                          d="M121.93 478.595C116.599 459.598 95.5469 465.157 95.5469 465.157C95.5469 465.157 111.308 470.308 119.346 478.595H121.93Z"
                          fill="#02B596"/>
                    <path id="Path 151_2" fill-rule="evenodd" clip-rule="evenodd"
                          d="M121.875 475.677C127.206 456.679 144.975 459.457 144.975 459.457C144.975 459.457 134.183 468.328 124.458 475.677H121.875Z"
                          fill="#02B596"/>
                    <path id="Path 151_3" fill-rule="evenodd" clip-rule="evenodd"
                          d="M121.835 479.453C117.069 462.599 128.186 448.092 128.186 448.092C128.186 448.092 127.623 468.052 123.759 478.222L121.835 479.453Z"
                          fill="#02B596"/>
                    <path id="Path 114" fill-rule="evenodd" clip-rule="evenodd"
                          d="M117.172 475.677C115.065 469.587 112.969 461.082 111.398 452.837C119.161 455.959 121.655 468.397 119.161 475.677H117.172Z"
                          fill="#02D3AF"/>
                    <g id="Group 89">
                        <path id="Rectangle_25" fill-rule="evenodd" clip-rule="evenodd"
                              d="M102.024 471.762C101.921 470.584 102.849 469.571 104.032 469.571H134.684C135.866 469.571 136.795 470.584 136.692 471.762L130.785 539.355C130.694 540.396 129.822 541.195 128.777 541.195H109.939C108.893 541.195 108.021 540.396 107.93 539.355L102.024 471.762Z"
                              fill="#7569EC"/>
                        <mask id="mask1" mask-type="alpha" maskUnits="userSpaceOnUse" x="102" y="469" width="35"
                              height="73">
                            <path id="Rectangle_26" fill-rule="evenodd" clip-rule="evenodd"
                                  d="M102.024 471.762C101.921 470.584 102.849 469.571 104.032 469.571H134.684C135.866 469.571 136.795 470.584 136.692 471.762L130.785 539.355C130.694 540.396 129.822 541.195 128.777 541.195H109.939C108.893 541.195 108.021 540.396 107.93 539.355L102.024 471.762Z"
                                  fill="white"/>
                        </mask>
                        <g mask="url(#mask1)">
                            <path id="Rectangle_27" fill-rule="evenodd" clip-rule="evenodd"
                                  d="M97.4102 465.099H110.354C102.333 495.552 126.48 516.488 110.354 546.941H97.4102V465.099Z"
                                  fill="#8175FF"/>
                        </g>
                    </g>
                </g>
            </g>
            <g id="Chair4_2">
                <path id="Path 25" fill-rule="evenodd" clip-rule="evenodd"
                      d="M679.746 451.882L668.303 542.29L674.302 542.21L685.745 452.728L679.746 451.882Z"
                      fill="#91D6FF"/>
                <path id="Path_84" fill-rule="evenodd" clip-rule="evenodd"
                      d="M646.447 451.882L635.004 542.29L641.003 542.21L652.446 452.728L646.447 451.882Z"
                      fill="#91D6FF"/>
                <path id="Path_85" fill-rule="evenodd" clip-rule="evenodd"
                      d="M719.493 451.882L730.936 542.29L724.936 542.21L713.493 452.728L719.493 451.882Z"
                      fill="#BFE7FF"/>
                <path id="Path_86" fill-rule="evenodd" clip-rule="evenodd"
                      d="M642.07 466.093C636.854 466.093 632.625 461.864 632.625 456.648V456.648C632.625 451.431 636.854 447.203 642.07 447.203H679.833C685.554 447.203 690.336 442.849 690.872 437.153L696.91 372.96C697.445 367.263 702.227 362.91 707.949 362.91H731.649C738.108 362.91 743.199 368.408 742.705 374.848L736.48 455.854C736.036 461.632 731.219 466.093 725.425 466.093H642.07Z"
                      fill="#91D6FF"/>
                <path id="Combined Shape_2" fill-rule="evenodd" clip-rule="evenodd"
                      d="M632.627 456.567C632.679 456.568 632.731 456.568 632.783 456.568H715.913C721.706 456.568 726.523 452.108 726.968 446.332L733.188 365.614C733.256 364.734 733.219 363.872 733.089 363.038C732.537 362.954 731.972 362.91 731.395 362.91H707.807C702.086 362.91 697.305 367.262 696.768 372.957L690.735 436.916C690.197 442.611 685.416 446.963 679.696 446.963H642.046C636.843 446.963 632.625 451.181 632.625 456.384C632.625 456.445 632.626 456.506 632.627 456.567Z"
                      fill="#BFE7FF"/>
            </g>
            <g id="Group 26_10">
                <g id="Group 25">
                    <path id="Rectangle_31" fill-rule="evenodd" clip-rule="evenodd"
                          d="M384.205 397.871H395.622V542.751H384.205L384.205 397.871Z" fill="#E9E9E9"/>
                    <path id="Rectangle_32" fill-rule="evenodd" clip-rule="evenodd"
                          d="M272.375 402.634L362.564 402.634V429.542H287.403V542.751H272.375V402.634Z" fill="#D3D3D3"/>
                    <path id="Rectangle_33" fill-rule="evenodd" clip-rule="evenodd"
                          d="M271.791 402.634H279.791V542.751H271.791V402.634Z" fill="#DBDBDB"/>
                </g>
                <g id="Group 25_2">
                    <path id="Rectangle_34" fill-rule="evenodd" clip-rule="evenodd"
                          d="M664.43 402.634H680.43V542.751H664.43V402.634Z" fill="#E9E9E9"/>
                    <path id="Rectangle_35" fill-rule="evenodd" clip-rule="evenodd"
                          d="M664.43 397.871H674.43V542.751H664.43L664.43 397.871Z" fill="#DBDBDB"/>
                    <path id="Rectangle_36" fill-rule="evenodd" clip-rule="evenodd"
                          d="M532.006 402.634L671.006 402.634V429.19H550.713V542.751H532.006V402.634Z" fill="#D3D3D3"/>
                    <path id="Rectangle_37" fill-rule="evenodd" clip-rule="evenodd"
                          d="M283.59 397.871L532.479 397.871V438.101H283.59V397.871Z" fill="#DBDBDB"/>
                    <path id="Rectangle_38" fill-rule="evenodd" clip-rule="evenodd"
                          d="M526.771 402.634H538.188V438.101H526.771V402.634Z" fill="#E9E9E9"/>
                    <path id="Rectangle_39" fill-rule="evenodd" clip-rule="evenodd"
                          d="M532.041 402.634H541.041V542.751H532.041V402.634Z" fill="#DBDBDB"/>
                    <path id="Rectangle_40" fill-rule="evenodd" clip-rule="evenodd"
                          d="M533.477 405.015C533.477 401.07 536.675 397.871 540.62 397.871L685.746 397.871C689.691 397.871 692.889 401.07 692.889 405.015V405.015C692.889 408.96 689.691 412.158 685.746 412.158H540.62C536.675 412.158 533.477 408.96 533.477 405.015V405.015Z"
                          fill="#E9E9E9"/>
                    <path id="Rectangle_41" fill-rule="evenodd" clip-rule="evenodd"
                          d="M280.736 400.729H529.626V415.016H280.736V400.729Z" fill="#E9E9E9"/>
                    <path id="Rectangle_42" fill-rule="evenodd" clip-rule="evenodd"
                          d="M259.805 405.015C259.805 401.07 263.003 397.871 266.948 397.871H543.412C547.358 397.871 550.556 401.07 550.556 405.015V405.015C550.556 408.96 547.358 412.158 543.412 412.158H266.948C263.003 412.158 259.805 408.96 259.805 405.015V405.015Z"
                          fill="#DBDBDB"/>
                </g>
            </g>
            <g id="Chair8">
                <path id="Path_131" fill-rule="evenodd" clip-rule="evenodd"
                      d="M292.769 463.221L281.326 544.179L287.326 544.1L298.769 464.067L292.769 463.221Z"
                      fill="#BFE7FF"/>
                <path id="Path_132" fill-rule="evenodd" clip-rule="evenodd"
                      d="M330.93 463.221L342.373 544.179L336.374 544.1L324.931 464.067L330.93 463.221Z" fill="#91D6FF"/>
                <path id="Path_133" fill-rule="evenodd" clip-rule="evenodd"
                      d="M257.884 463.221L246.441 544.179L252.441 544.1L263.884 464.067L257.884 463.221Z"
                      fill="#BFE7FF"/>
                <path id="Path_134" fill-rule="evenodd" clip-rule="evenodd"
                      d="M335.307 467.983C340.523 467.983 344.752 463.754 344.752 458.538V458.538C344.752 453.321 340.523 449.093 335.307 449.093H297.544C291.823 449.093 287.041 444.739 286.505 439.043L280.467 374.85C279.931 369.153 275.149 364.8 269.428 364.8H245.728C239.269 364.8 234.178 370.298 234.672 376.738L240.897 457.744C241.341 463.522 246.158 467.983 251.952 467.983H335.307Z"
                      fill="#BFE7FF"/>
                <path id="Combined Shape_4" fill-rule="evenodd" clip-rule="evenodd"
                      d="M344.75 458.457C344.698 458.458 344.646 458.458 344.594 458.458H292.611C286.818 458.458 282.001 453.998 281.556 448.222L275.248 366.363C278.192 368.121 280.266 371.21 280.609 374.847L286.642 438.806C287.18 444.501 291.961 448.853 297.681 448.853H335.331C340.534 448.853 344.752 453.071 344.752 458.274C344.752 458.335 344.751 458.396 344.75 458.457Z"
                      fill="#91D6FF"/>
            </g>
            <g id="Front Laptop3">
                <path id="Rectangle_43" fill-rule="evenodd" clip-rule="evenodd"
                      d="M558.982 396.543C558.982 396.13 558.648 395.796 558.236 395.796H474.1C473.687 395.796 473.353 396.13 473.353 396.543V397.639C473.353 398.052 473.687 398.386 474.1 398.386H558.236C558.648 398.386 558.982 398.052 558.982 397.639V396.543Z"
                      fill="url(#paint19_linear)"/>
                <path id="Rectangle_44" fill-rule="evenodd" clip-rule="evenodd"
                      d="M558.99 396.543C558.99 396.13 558.656 395.796 558.244 395.796H525.917C525.505 395.796 525.17 396.13 525.17 396.543V397.639C525.17 398.052 525.505 398.386 525.917 398.386H558.244C558.656 398.386 558.99 398.052 558.99 397.639V396.543Z"
                      fill="#518DF8"/>
                <path id="Rectangle_45" fill-rule="evenodd" clip-rule="evenodd"
                      d="M565.094 360.353C565.369 358.201 563.693 356.296 561.523 356.296H505.712C503.9 356.296 502.371 357.642 502.141 359.439L497.99 391.852C497.714 394.004 499.391 395.909 501.561 395.909H557.372C559.183 395.909 560.713 394.563 560.943 392.766L565.094 360.353Z"
                      fill="#518DF8"/>
                <path id="Rectangle_46" fill-rule="evenodd" clip-rule="evenodd"
                      d="M563.394 360.353C563.67 358.201 561.993 356.296 559.824 356.296H505.192C503.381 356.296 501.851 357.642 501.621 359.439L497.47 391.852C497.195 394.004 498.871 395.909 501.041 395.909H555.673C557.484 395.909 559.013 394.563 559.244 392.766L563.394 360.353Z"
                      fill="url(#paint20_linear)"/>
                <path id="Rectangle_47"
                      d="M561.445 361.821C561.693 359.884 560.184 358.17 558.231 358.17H506.473C504.842 358.17 503.466 359.381 503.259 360.999L499.519 390.236C499.271 392.173 500.78 393.887 502.733 393.887H554.491C556.122 393.887 557.498 392.675 557.705 391.058L561.445 361.821Z"
                      fill="white"/>
            </g>
            <g id="Chair8_2">
                <path id="Path_152" fill-rule="evenodd" clip-rule="evenodd"
                      d="M431.657 463.221L443.1 544.179L437.1 544.1L425.657 464.067L431.657 463.221Z" fill="#91D6FF"/>
                <path id="Path_153" fill-rule="evenodd" clip-rule="evenodd"
                      d="M464.955 463.221L476.398 544.179L470.399 544.1L458.956 464.067L464.955 463.221Z"
                      fill="#91D6FF"/>
                <path id="Path_154" fill-rule="evenodd" clip-rule="evenodd"
                      d="M391.91 463.221L380.467 544.179L386.466 544.1L397.909 464.067L391.91 463.221Z" fill="#BFE7FF"/>
                <path id="Path_155" fill-rule="evenodd" clip-rule="evenodd"
                      d="M469.332 467.983C474.549 467.983 478.777 463.754 478.777 458.538V458.538C478.777 453.321 474.549 449.093 469.332 449.093H431.57C425.848 449.093 421.066 444.739 420.531 439.043L414.493 374.85C413.957 369.153 409.175 364.8 403.453 364.8H379.753C373.295 364.8 368.203 370.298 368.698 376.738L374.922 457.744C375.366 463.522 380.183 467.983 385.978 467.983H469.332Z"
                      fill="#BFE7FF"/>
                <path id="Combined Shape_7" fill-rule="evenodd" clip-rule="evenodd"
                      d="M478.776 458.457C478.724 458.458 478.672 458.458 478.619 458.458H426.636C420.843 458.458 416.026 453.998 415.581 448.222L409.274 366.363C412.218 368.121 414.292 371.21 414.635 374.847L420.668 438.806C421.205 444.501 425.986 448.853 431.707 448.853H469.357C474.56 448.853 478.777 453.071 478.777 458.274C478.777 458.335 478.777 458.396 478.776 458.457Z"
                      fill="#91D6FF"/>
            </g>
        </g>
    </g>
    <defs>
        <filter id="filter0_d" x="70.8555" y="85.0081" width="191.801" height="107.428" filterUnits="userSpaceOnUse"
                color-interpolation-filters="sRGB">
            <feFlood flood-opacity="0" result="BackgroundImageFix"/>
            <feColorMatrix in="SourceAlpha" type="matrix" values="0 0 0 0 0 0 0 0 0 0 0 0 0 0 0 0 0 0 127 0"/>
            <feOffset dx="8" dy="9"/>
            <feGaussianBlur stdDeviation="14"/>
            <feColorMatrix type="matrix" values="0 0 0 0 0.0862745 0 0 0 0 0.113725 0 0 0 0 0.192157 0 0 0 0.7 0"/>
            <feBlend mode="normal" in2="BackgroundImageFix" result="effect1_dropShadow"/>
            <feBlend mode="normal" in="SourceGraphic" in2="effect1_dropShadow" result="shape"/>
        </filter>
        <filter id="filter1_d" x="70.8555" y="143.592" width="224.949" height="198.68" filterUnits="userSpaceOnUse"
                color-interpolation-filters="sRGB">
            <feFlood flood-opacity="0" result="BackgroundImageFix"/>
            <feColorMatrix in="SourceAlpha" type="matrix" values="0 0 0 0 0 0 0 0 0 0 0 0 0 0 0 0 0 0 127 0"/>
            <feOffset dx="8" dy="9"/>
            <feGaussianBlur stdDeviation="14"/>
            <feColorMatrix type="matrix" values="0 0 0 0 0.0862745 0 0 0 0 0.113725 0 0 0 0 0.192157 0 0 0 0.7 0"/>
            <feBlend mode="normal" in2="BackgroundImageFix" result="effect1_dropShadow"/>
            <feBlend mode="normal" in="SourceGraphic" in2="effect1_dropShadow" result="shape"/>
        </filter>
        <filter id="filter2_d" x="96.5059" y="204.89" width="161.424" height="97.3127" filterUnits="userSpaceOnUse"
                color-interpolation-filters="sRGB">
            <feFlood flood-opacity="0" result="BackgroundImageFix"/>
            <feColorMatrix in="SourceAlpha" type="matrix" values="0 0 0 0 0 0 0 0 0 0 0 0 0 0 0 0 0 0 127 0"/>
            <feOffset dy="13"/>
            <feGaussianBlur stdDeviation="7.5"/>
            <feColorMatrix type="matrix" values="0 0 0 0 0 0 0 0 0 0 0 0 0 0 0 0 0 0 0.144395 0"/>
            <feBlend mode="normal" in2="BackgroundImageFix" result="effect1_dropShadow"/>
            <feBlend mode="normal" in="SourceGraphic" in2="effect1_dropShadow" result="shape"/>
        </filter>
        <filter id="filter3_d" x="276.232" y="107.237" width="272.181" height="197.485" filterUnits="userSpaceOnUse"
                color-interpolation-filters="sRGB">
            <feFlood flood-opacity="0" result="BackgroundImageFix"/>
            <feColorMatrix in="SourceAlpha" type="matrix" values="0 0 0 0 0 0 0 0 0 0 0 0 0 0 0 0 0 0 127 0"/>
            <feOffset dx="6" dy="6"/>
            <feGaussianBlur stdDeviation="8"/>
            <feColorMatrix type="matrix" values="0 0 0 0 0.0862745 0 0 0 0 0.113725 0 0 0 0 0.192157 0 0 0 0.7 0"/>
            <feBlend mode="normal" in2="BackgroundImageFix" result="effect1_dropShadow"/>
            <feBlend mode="normal" in="SourceGraphic" in2="effect1_dropShadow" result="shape"/>
        </filter>
        <linearGradient id="paint0_linear" x1="554.833" y1="313.939" x2="543.753" y2="363.416"
                        gradientUnits="userSpaceOnUse">
            <stop stop-color="#FFAFAF"/>
            <stop offset="1" stop-color="#F07777"/>
        </linearGradient>
        <linearGradient id="paint1_linear" x1="553.973" y1="304.545" x2="547.325" y2="337.064"
                        gradientUnits="userSpaceOnUse">
            <stop stop-color="#FDC6C6"/>
            <stop offset="1" stop-color="#FAB2B2"/>
        </linearGradient>
        <linearGradient id="paint2_linear" x1="506.962" y1="507.352" x2="505.369" y2="537.133"
                        gradientUnits="userSpaceOnUse">
            <stop stop-color="#FDC6C6"/>
            <stop offset="1" stop-color="#FAB2B2"/>
        </linearGradient>
        <linearGradient id="paint3_linear" x1="475.89" y1="545.704" x2="427.815" y2="453.427"
                        gradientUnits="userSpaceOnUse">
            <stop stop-color="#28324F"/>
            <stop offset="1" stop-color="#222735"/>
        </linearGradient>
        <linearGradient id="paint4_linear" x1="470.77" y1="342.915" x2="468.618" y2="371.518"
                        gradientUnits="userSpaceOnUse">
            <stop stop-color="#FDC6C6"/>
            <stop offset="1" stop-color="#FAB2B2"/>
        </linearGradient>
        <linearGradient id="paint5_linear" x1="549.733" y1="372.46" x2="549.102" y2="390.93"
                        gradientUnits="userSpaceOnUse">
            <stop stop-color="#FDC6C6"/>
            <stop offset="1" stop-color="#FAB2B2"/>
        </linearGradient>
        <linearGradient id="paint6_linear" x1="242.334" y1="204.269" x2="232.445" y2="205.194"
                        gradientUnits="userSpaceOnUse">
            <stop stop-color="#4D63A0"/>
            <stop offset="1" stop-color="#222735"/>
        </linearGradient>
        <linearGradient id="paint7_linear" x1="127.011" y1="403.433" x2="127.011" y2="419.998"
                        gradientUnits="userSpaceOnUse">
            <stop stop-color="#FE62BE"/>
            <stop offset="1" stop-color="#FDB3A8"/>
        </linearGradient>
        <linearGradient id="paint8_linear" x1="103.291" y1="390.795" x2="105.022" y2="407.27"
                        gradientUnits="userSpaceOnUse">
            <stop stop-color="#FE62BE"/>
            <stop offset="1" stop-color="#FDB3A8"/>
        </linearGradient>
        <linearGradient id="paint9_linear" x1="664.727" y1="505.858" x2="663.131" y2="535.708"
                        gradientUnits="userSpaceOnUse">
            <stop stop-color="#FDC6C6"/>
            <stop offset="1" stop-color="#FAB2B2"/>
        </linearGradient>
        <linearGradient id="paint10_linear" x1="660.095" y1="333.529" x2="655.855" y2="394.079"
                        gradientUnits="userSpaceOnUse">
            <stop stop-color="#FDC6C6"/>
            <stop offset="1" stop-color="#FAB2B2"/>
        </linearGradient>
        <linearGradient id="paint11_linear" x1="714.441" y1="309.528" x2="703.216" y2="359.065"
                        gradientUnits="userSpaceOnUse">
            <stop stop-color="#FFAFAF"/>
            <stop offset="1" stop-color="#F07777"/>
        </linearGradient>
        <linearGradient id="paint12_linear" x1="713.685" y1="300.112" x2="707.025" y2="332.709"
                        gradientUnits="userSpaceOnUse">
            <stop stop-color="#FDC6C6"/>
            <stop offset="1" stop-color="#FAB2B2"/>
        </linearGradient>
        <linearGradient id="paint13_linear" x1="629.45" y1="507.061" x2="627.889" y2="540.334"
                        gradientUnits="userSpaceOnUse">
            <stop stop-color="#FDC6C6"/>
            <stop offset="1" stop-color="#FAB2B2"/>
        </linearGradient>
        <linearGradient id="paint14_linear" x1="739.378" y1="366.401" x2="737.871" y2="405.785"
                        gradientUnits="userSpaceOnUse">
            <stop stop-color="#FDC6C6"/>
            <stop offset="1" stop-color="#FAB2B2"/>
        </linearGradient>
        <linearGradient id="paint15_linear" x1="586.221" y1="336.275" x2="598.146" y2="384.102"
                        gradientUnits="userSpaceOnUse">
            <stop stop-color="#9FF6EC"/>
            <stop offset="1" stop-color="#7D9DFF"/>
        </linearGradient>
        <linearGradient id="paint16_linear" x1="291.949" y1="392.304" x2="303.7" y2="418.424"
                        gradientUnits="userSpaceOnUse">
            <stop stop-color="#FDC6C6"/>
            <stop offset="1" stop-color="#A47070"/>
        </linearGradient>
        <linearGradient id="paint17_linear" x1="322.015" y1="293.839" x2="318.539" y2="340.739"
                        gradientUnits="userSpaceOnUse">
            <stop stop-color="#FDC6C6"/>
            <stop offset="1" stop-color="#A47070"/>
        </linearGradient>
        <linearGradient id="paint18_linear" x1="407.317" y1="345.096" x2="404.967" y2="377.735"
                        gradientUnits="userSpaceOnUse">
            <stop stop-color="#FDC6C6"/>
            <stop offset="1" stop-color="#A47070"/>
        </linearGradient>
        <linearGradient id="paint19_linear" x1="552.738" y1="395.207" x2="552.738" y2="398.386"
                        gradientUnits="userSpaceOnUse">
            <stop stop-color="#9FF6EC"/>
            <stop offset="1" stop-color="#7D9DFF"/>
        </linearGradient>
        <linearGradient id="paint20_linear" x1="559.031" y1="347.282" x2="559.031" y2="395.909"
                        gradientUnits="userSpaceOnUse">
            <stop stop-color="#9FF6EC"/>
            <stop offset="1" stop-color="#7D9DFF"/>
        </linearGradient>
        <linearGradient id="paint21_linear" x1="422.208" y1="370.874" x2="442.753" y2="417.819"
                        gradientUnits="userSpaceOnUse">
            <stop stop-color="#FDC6C6"/>
            <stop offset="1" stop-color="#FFCCA1"/>
        </linearGradient>
        <linearGradient id="paint22_linear" x1="460.365" y1="498.881" x2="457.668" y2="527.059"
                        gradientUnits="userSpaceOnUse">
            <stop stop-color="#FDC6C6"/>
            <stop offset="1" stop-color="#FAB2B2"/>
        </linearGradient>
        <linearGradient id="paint23_linear" x1="526.04" y1="498.123" x2="523.808" y2="524.105"
                        gradientUnits="userSpaceOnUse">
            <stop stop-color="#FDC6C6"/>
            <stop offset="1" stop-color="#FAB2B2"/>
        </linearGradient>
        <linearGradient id="paint24_linear" x1="459.153" y1="304.686" x2="456.055" y2="346.483"
                        gradientUnits="userSpaceOnUse">
            <stop stop-color="#FDC6C6"/>
            <stop offset="1" stop-color="#FFCCA1"/>
        </linearGradient>
        <linearGradient id="paint25_linear" x1="537.824" y1="345.73" x2="534.833" y2="399.408"
                        gradientUnits="userSpaceOnUse">
            <stop stop-color="#FDC6C6"/>
            <stop offset="1" stop-color="#FFCCA1"/>
        </linearGradient>
    </defs>
</svg>
