<?xml version="1.0" encoding="UTF-8"?>
<svg width="747px" height="547px" viewBox="0 0 747 547" version="1.1" xmlns="http://www.w3.org/2000/svg" xmlns:xlink="http://www.w3.org/1999/xlink">
    <title>Illustration</title>
    <defs>
        <path d="M5.388768,0 L130.412508,0 C133.388643,-1.43488544e-15 135.801276,2.41263361 135.801276,5.388768 L135.801276,46.0387744 C135.801276,49.0149088 133.388643,51.4275424 130.412508,51.4275424 L5.388768,51.4275424 C2.41263361,51.4275424 2.55312201e-15,49.0149088 0,46.0387744 L0,5.388768 C-1.25264976e-15,2.41263361 2.41263361,-2.11782824e-15 5.388768,0 Z" id="path-1"></path>
        <filter x="-28.4%" y="-72.9%" width="168.5%" height="280.8%" filterUnits="objectBoundingBox" id="filter-2">
            <feOffset dx="8" dy="9" in="SourceAlpha" result="shadowOffsetOuter1"></feOffset>
            <feGaussianBlur stdDeviation="14" in="shadowOffsetOuter1" result="shadowBlurOuter1"></feGaussianBlur>
            <feColorMatrix values="0 0 0 0 0.0755212756   0 0 0 0 0.582569014   0 0 0 0 0.878793025  0 0 0 0.229458042 0" type="matrix" in="shadowBlurOuter1" result="shadowMatrixOuter1"></feColorMatrix>
            <feOffset dx="0" dy="2" in="SourceAlpha" result="shadowOffsetOuter2"></feOffset>
            <feGaussianBlur stdDeviation="7.5" in="shadowOffsetOuter2" result="shadowBlurOuter2"></feGaussianBlur>
            <feColorMatrix values="0 0 0 0 0.50398247   0 0 0 0 0.700178215   0 0 0 0 1  0 0 0 0.233828671 0" type="matrix" in="shadowBlurOuter2" result="shadowMatrixOuter2"></feColorMatrix>
            <feMerge>
                <feMergeNode in="shadowMatrixOuter1"></feMergeNode>
                <feMergeNode in="shadowMatrixOuter2"></feMergeNode>
            </feMerge>
        </filter>
        <path d="M5,0 L163.949198,0 C166.710622,3.80913106e-16 168.949198,2.23857625 168.949198,5 L168.949198,137.679592 C168.949198,140.441016 166.710622,142.679592 163.949198,142.679592 L5,142.679592 C2.23857625,142.679592 3.38176876e-16,140.441016 0,137.679592 L0,5 C-3.38176876e-16,2.23857625 2.23857625,1.39544373e-15 5,0 Z" id="path-3"></path>
        <filter x="-22.8%" y="-26.3%" width="155.0%" height="165.2%" filterUnits="objectBoundingBox" id="filter-5">
            <feOffset dx="8" dy="9" in="SourceAlpha" result="shadowOffsetOuter1"></feOffset>
            <feGaussianBlur stdDeviation="14" in="shadowOffsetOuter1" result="shadowBlurOuter1"></feGaussianBlur>
            <feColorMatrix values="0 0 0 0 0.0755212756   0 0 0 0 0.582569014   0 0 0 0 0.878793025  0 0 0 0.229458042 0" type="matrix" in="shadowBlurOuter1" result="shadowMatrixOuter1"></feColorMatrix>
            <feOffset dx="0" dy="2" in="SourceAlpha" result="shadowOffsetOuter2"></feOffset>
            <feGaussianBlur stdDeviation="7.5" in="shadowOffsetOuter2" result="shadowBlurOuter2"></feGaussianBlur>
            <feColorMatrix values="0 0 0 0 0.50398247   0 0 0 0 0.700178215   0 0 0 0 1  0 0 0 0.233828671 0" type="matrix" in="shadowBlurOuter2" result="shadowMatrixOuter2"></feColorMatrix>
            <feMerge>
                <feMergeNode in="shadowMatrixOuter1"></feMergeNode>
                <feMergeNode in="shadowMatrixOuter2"></feMergeNode>
            </feMerge>
        </filter>
        <path d="M22.6524064,109.608163 C36.0424523,105.75851 45.6894817,99.9049002 51.5934946,92.0473343 C60.4495139,80.2609855 63.4351742,68.8366467 78.6666599,68.8366467 C93.8981456,68.8366467 95.8510232,86.3337998 112.316621,86.3337998 C128.782219,86.3337998 129.682684,64.0202266 135.155236,55.1601133 C138.803604,49.2533711 143.775923,46.3 150.072193,46.3" id="path-6"></path>
        <filter x="-24.7%" y="-28.4%" width="149.0%" height="198.7%" filterUnits="objectBoundingBox" id="filter-7">
            <feMorphology radius="2.002" operator="dilate" in="SourceAlpha" result="shadowSpreadOuter1"></feMorphology>
            <feOffset dx="0" dy="13" in="shadowSpreadOuter1" result="shadowOffsetOuter1"></feOffset>
            <feMorphology radius="2.002" operator="erode" in="SourceAlpha" result="shadowInner"></feMorphology>
            <feOffset dx="0" dy="13" in="shadowInner" result="shadowInner"></feOffset>
            <feComposite in="shadowOffsetOuter1" in2="shadowInner" operator="out" result="shadowOffsetOuter1"></feComposite>
            <feGaussianBlur stdDeviation="7.5" in="shadowOffsetOuter1" result="shadowBlurOuter1"></feGaussianBlur>
            <feColorMatrix values="0 0 0 0 0   0 0 0 0 0   0 0 0 0 0  0 0 0 0.144394668 0" type="matrix" in="shadowBlurOuter1"></feColorMatrix>
        </filter>
        <path d="M7.4844,0 L232.6968,0 C236.83032,-1.64749372e-15 240.1812,3.35088002 240.1812,7.4844 L240.1812,158.000266 C240.1812,162.133786 236.83032,165.484666 232.6968,165.484666 L7.4844,165.484666 C3.35088002,165.484666 -7.48739558e-15,162.133786 0,158.000266 L0,7.4844 C3.81968218e-16,3.35088002 3.35088002,-5.45793364e-15 7.4844,0 Z" id="path-8"></path>
        <filter x="-8.7%" y="-12.7%" width="122.5%" height="132.6%" filterUnits="objectBoundingBox" id="filter-9">
            <feOffset dx="6" dy="6" in="SourceAlpha" result="shadowOffsetOuter1"></feOffset>
            <feGaussianBlur stdDeviation="8" in="shadowOffsetOuter1" result="shadowBlurOuter1"></feGaussianBlur>
            <feColorMatrix values="0 0 0 0 0.701879529   0 0 0 0 0.701879529   0 0 0 0 0.701879529  0 0 0 0.208724869 0" type="matrix" in="shadowBlurOuter1"></feColorMatrix>
        </filter>
        <linearGradient x1="45.1359293%" y1="-28.1859254%" x2="62.0176018%" y2="121.546626%" id="linearGradient-10">
            <stop stop-color="#FFAFAF" offset="0%"></stop>
            <stop stop-color="#F07777" offset="100%"></stop>
        </linearGradient>
        <linearGradient x1="31.7132608%" y1="-6.20629719%" x2="55.1442779%" y2="90.7204601%" id="linearGradient-11">
            <stop stop-color="#FDC6C6" offset="0%"></stop>
            <stop stop-color="#FAB2B2" offset="100%"></stop>
        </linearGradient>
        <linearGradient x1="42.3142644%" y1="-3.85998276%" x2="50%" y2="78.2784683%" id="linearGradient-12">
            <stop stop-color="#FDC6C6" offset="0%"></stop>
            <stop stop-color="#FAB2B2" offset="100%"></stop>
        </linearGradient>
        <linearGradient x1="28.5029159%" y1="98.6431024%" x2="77.0614974%" y2="9.20431052%" id="linearGradient-13">
            <stop stop-color="#28324F" offset="0%"></stop>
            <stop stop-color="#222735" offset="100%"></stop>
        </linearGradient>
        <linearGradient x1="44.359463%" y1="-28.1859254%" x2="50%" y2="91.0504812%" id="linearGradient-14">
            <stop stop-color="#FDC6C6" offset="0%"></stop>
            <stop stop-color="#FAB2B2" offset="100%"></stop>
        </linearGradient>
        <linearGradient x1="42.3142644%" y1="28.0624985%" x2="50%" y2="61.5179936%" id="linearGradient-15">
            <stop stop-color="#FDC6C6" offset="0%"></stop>
            <stop stop-color="#FAB2B2" offset="100%"></stop>
        </linearGradient>
        <linearGradient x1="70.8290542%" y1="38.1822589%" x2="32.5096572%" y2="84.8636514%" id="linearGradient-16">
            <stop stop-color="#4D63A0" offset="0%"></stop>
            <stop stop-color="#222735" offset="100%"></stop>
        </linearGradient>
        <linearGradient x1="68.6694733%" y1="-6.66432423%" x2="68.6694733%" y2="100%" id="linearGradient-17">
            <stop stop-color="#FE62BE" offset="0%"></stop>
            <stop stop-color="#FDB3A8" offset="100%"></stop>
        </linearGradient>
        <path d="M2.67368445,0.442901691 L33.3255838,0.442901691 C34.4389898,0.442901691 35.3415838,1.34549564 35.3415838,2.45890169 C35.3415838,2.51748756 35.33903,2.57604559 35.3339297,2.63440903 L29.4270645,70.2271862 C29.3360564,71.2685997 28.4641012,72.0676788 27.4187187,72.0676788 L8.58054957,72.0676788 C7.53516702,72.0676788 6.66321178,71.2685997 6.57220369,70.2271862 L0.665338569,2.63440903 C0.568408544,1.52523022 1.38899831,0.547485836 2.49817711,0.450555811 C2.55654055,0.445455488 2.61509858,0.442901691 2.67368445,0.442901691 Z" id="path-18"></path>
        <linearGradient x1="42.3142644%" y1="-3.80155206%" x2="50%" y2="78.24779%" id="linearGradient-20">
            <stop stop-color="#FDC6C6" offset="0%"></stop>
            <stop stop-color="#FAB2B2" offset="100%"></stop>
        </linearGradient>
        <linearGradient x1="43.4874564%" y1="-28.1859254%" x2="50%" y2="91.0504812%" id="linearGradient-21">
            <stop stop-color="#FDC6C6" offset="0%"></stop>
            <stop stop-color="#FAB2B2" offset="100%"></stop>
        </linearGradient>
        <linearGradient x1="45.2488919%" y1="-28.1859254%" x2="61.7385065%" y2="121.546626%" id="linearGradient-22">
            <stop stop-color="#FFAFAF" offset="0%"></stop>
            <stop stop-color="#F07777" offset="100%"></stop>
        </linearGradient>
        <linearGradient x1="31.7132608%" y1="-6.14532105%" x2="55.1442779%" y2="90.676284%" id="linearGradient-23">
            <stop stop-color="#FDC6C6" offset="0%"></stop>
            <stop stop-color="#FAB2B2" offset="100%"></stop>
        </linearGradient>
        <linearGradient x1="42.3142644%" y1="8.58120408%" x2="50%" y2="71.7463884%" id="linearGradient-24">
            <stop stop-color="#FDC6C6" offset="0%"></stop>
            <stop stop-color="#FAB2B2" offset="100%"></stop>
        </linearGradient>
        <linearGradient x1="42.3142644%" y1="22.4182939%" x2="50%" y2="64.4814083%" id="linearGradient-25">
            <stop stop-color="#FDC6C6" offset="0%"></stop>
            <stop stop-color="#FAB2B2" offset="100%"></stop>
        </linearGradient>
        <linearGradient x1="68.6694733%" y1="-22.7541031%" x2="68.6694733%" y2="100%" id="linearGradient-26">
            <stop stop-color="#9FF6EC" offset="0%"></stop>
            <stop stop-color="#7D9DFF" offset="100%"></stop>
        </linearGradient>
        <linearGradient x1="45.1633771%" y1="-28.1859254%" x2="50%" y2="91.0504812%" id="linearGradient-27">
            <stop stop-color="#FDC6C6" offset="0%"></stop>
            <stop stop-color="#A47070" offset="100%"></stop>
        </linearGradient>
        <linearGradient x1="44.1865682%" y1="-28.1859254%" x2="50%" y2="91.0504812%" id="linearGradient-28">
            <stop stop-color="#FDC6C6" offset="0%"></stop>
            <stop stop-color="#A47070" offset="100%"></stop>
        </linearGradient>
        <linearGradient x1="43.8358596%" y1="-28.1859254%" x2="50%" y2="91.0504812%" id="linearGradient-29">
            <stop stop-color="#FDC6C6" offset="0%"></stop>
            <stop stop-color="#A47070" offset="100%"></stop>
        </linearGradient>
        <linearGradient x1="68.6694733%" y1="-22.7541031%" x2="68.6694733%" y2="100%" id="linearGradient-30">
            <stop stop-color="#9FF6EC" offset="0%"></stop>
            <stop stop-color="#7D9DFF" offset="100%"></stop>
        </linearGradient>
        <linearGradient x1="68.6694733%" y1="-22.7541031%" x2="68.6694733%" y2="100%" id="linearGradient-31">
            <stop stop-color="#9FF6EC" offset="0%"></stop>
            <stop stop-color="#7D9DFF" offset="100%"></stop>
        </linearGradient>
        <linearGradient x1="46.1884345%" y1="-28.1859254%" x2="50%" y2="91.0504812%" id="linearGradient-32">
            <stop stop-color="#FDC6C6" offset="0%"></stop>
            <stop stop-color="#FFCCA1" offset="100%"></stop>
        </linearGradient>
        <linearGradient x1="46.5145022%" y1="-28.1859254%" x2="50%" y2="91.0504812%" id="linearGradient-33">
            <stop stop-color="#FDC6C6" offset="0%"></stop>
            <stop stop-color="#FAB2B2" offset="100%"></stop>
        </linearGradient>
        <linearGradient x1="45.6760244%" y1="-28.1859254%" x2="50%" y2="91.0504812%" id="linearGradient-34">
            <stop stop-color="#FDC6C6" offset="0%"></stop>
            <stop stop-color="#FAB2B2" offset="100%"></stop>
        </linearGradient>
        <linearGradient x1="44.1878124%" y1="-28.1859254%" x2="50%" y2="91.0504812%" id="linearGradient-35">
            <stop stop-color="#FDC6C6" offset="0%"></stop>
            <stop stop-color="#FFCCA1" offset="100%"></stop>
        </linearGradient>
        <linearGradient x1="42.3142644%" y1="-8.45265778%" x2="50%" y2="80.6897913%" id="linearGradient-36">
            <stop stop-color="#FDC6C6" offset="0%"></stop>
            <stop stop-color="#FFCCA1" offset="100%"></stop>
        </linearGradient>
    </defs>
    <g id="ðŸ“-Pages-New" stroke="none" stroke-width="1" fill="none" fill-rule="evenodd">
        <g id="Login-" transform="translate(-113.000000, -271.000000)">
            <g id="Illustration" transform="translate(113.500000, 271.500000)">
                <g id="Shape" transform="translate(0.500000, 0.500000)">
                    <g id="Group-59" transform="translate(0.000000, 0.818995)">
                        <path d="M673.320496,164.42973 C682.697842,151.911489 700.453642,149.360857 712.979187,158.732736 C725.379475,168.010895 728.00481,185.49599 718.957248,197.991201 L718.679504,198.368303 L644.379725,297.554422 C634.916309,310.187563 617.340382,313.390522 604.040557,304.982961 L603.638854,304.724631 L556.864897,274.128494 L509.705425,342.774231 C500.937414,355.536823 483.564296,358.874417 470.701797,350.351376 L470.313418,350.089469 C457.54338,341.32657 454.203839,323.963582 462.731853,311.108582 L462.993913,310.72043 L524.792998,220.766562 C533.999402,207.36585 552.141193,203.672841 565.84142,212.325168 L566.255205,212.591141 L613.898286,243.755416 L673.320496,164.42973 Z" id="Path" fill="#7367F0" fill-rule="nonzero" opacity="0.0845424107"></path>
                        <path d="M430.118007,3.47524559 C432.495605,0.0208430156 437.231582,-0.857710836 440.696106,1.51294064 C444.115045,3.85239933 445.018124,8.48187172 442.756323,11.9231258 L442.664161,12.060134 L424.147685,38.9600355 C421.433138,42.7508086 416.180742,43.663949 412.344581,41.0416044 L412.208184,40.9464449 L401.573583,33.3756019 L390.048198,51.6348483 C387.83905,55.1345722 383.234303,56.2178186 379.695669,54.0995121 L379.556547,54.0142301 C376.046569,51.8115364 374.960148,47.2202425 377.084662,43.6919474 L377.170193,43.5532325 L392.455068,19.3389947 C394.97306,15.3500003 400.257491,14.151554 404.258175,16.6621902 L404.467404,16.7977781 L404.672581,16.9393898 L415.53035,24.6692771 L430.118007,3.47524559 Z" id="Path" fill="#7367F0" fill-rule="nonzero" opacity="0.0845424107"></path>
                        <path d="M634.903005,126.988904 L634.903005,109.011803 L634.903005,109.011803 L652.892053,109.011803 C654.272765,109.011803 655.392053,107.892514 655.392053,106.511803 L655.392053,97.8570026 C655.392053,96.4762907 654.272765,95.3570026 652.892053,95.3570026 L634.903005,95.3570026 L634.903005,95.3570026 L634.903005,77.2473306 C634.903005,75.8666188 633.783717,74.7473306 632.403005,74.7473306 L623.607591,74.7473306 C622.226879,74.7473306 621.107591,75.8666188 621.107591,77.2473306 L621.107591,95.3570026 L621.107591,95.3570026 L603.118543,95.3570026 C601.737831,95.3570026 600.618543,96.4762907 600.618543,97.8570026 L600.618543,106.511803 C600.618543,107.892514 601.737831,109.011803 603.118543,109.011803 L621.107591,109.011803 L621.107591,109.011803 L621.107591,126.988904 C621.107591,128.369616 622.226879,129.488904 623.607591,129.488904 L632.403005,129.488904 C633.783717,129.488904 634.903005,128.369616 634.903005,126.988904 Z" id="+" fill="#00CFE8" opacity="0.070265997"></path>
                        <path d="M91.602649,20.1810047 C142.194127,20.1810047 183.206623,61.1695874 183.206623,111.731567 C183.206623,162.293546 142.194127,203.282128 91.602649,203.282128 C41.0111714,203.282128 -0.00132450331,162.293546 -0.00132450331,111.731567 C-0.00132450331,61.1695874 41.0111714,20.1810047 91.602649,20.1810047 Z M91.602649,65.4843755 C66.0461294,65.4843755 45.3284768,86.1899482 45.3284768,111.731567 C45.3284768,137.273185 66.0461294,157.978758 91.602649,157.978758 C117.159169,157.978758 137.876821,137.273185 137.876821,111.731567 C137.876821,86.1899482 117.159169,65.4843755 91.602649,65.4843755 Z" id="Oval" fill="#00CFE8" opacity="0.0739397321"></path>
                    </g>
                </g>
                <g id="Meeting" transform="translate(60.500000, 86.500000)">
                    <g id="Group-63" transform="translate(0.596257, 0.000000)">
                        <path d="M16,0 L486.128342,0 C494.964898,2.79941475e-14 502.128342,7.163444 502.128342,16 L502.128342,220.22449 C502.128342,229.061046 494.964898,236.22449 486.128342,236.22449 L16,236.22449 C7.163444,236.22449 -6.94190838e-16,229.061046 0,220.22449 L0,16 C-2.85852284e-15,7.163444 7.163444,1.58341037e-14 16,0 Z" id="Rectangle" fill="#E7FCFF"></path>
                        <path d="M23.5508021,0 L486.128342,0 C494.964898,-3.39960584e-15 502.128342,7.163444 502.128342,16 L502.128342,220.22449 C502.128342,229.061046 494.964898,236.22449 486.128342,236.22449 L23.5508021,236.22449 C14.7142461,236.22449 7.55080214,229.061046 7.55080214,220.22449 L7.55080214,16 C7.55080214,7.163444 14.7142461,1.58341037e-14 23.5508021,0 Z" id="Rectangle" fill="#00CFE8" opacity="0.383370536"></path>
                        <path d="M25.1016043,7.55918367 L484.57754,7.55918367 C490.100388,7.55918367 494.57754,12.0363362 494.57754,17.5591837 L494.57754,218.665306 C494.57754,224.188154 490.100388,228.665306 484.57754,228.665306 L25.1016043,228.665306 C19.5787568,228.665306 15.1016043,224.188154 15.1016043,218.665306 L15.1016043,17.5591837 C15.1016043,12.0363362 19.5787568,7.55918367 25.1016043,7.55918367 Z" id="Rectangle" fill="#E7FCFF"></path>
                        <path d="M220.254011,208.822449 L289.425134,208.822449 C292.738842,208.822449 295.425134,211.50874 295.425134,214.822449 L295.425134,228.665306 L295.425134,228.665306 L214.254011,228.665306 L214.254011,214.822449 C214.254011,211.50874 216.940302,208.822449 220.254011,208.822449 Z" id="Rectangle" fill="#D4EFFF"></path>
                        <path d="M227.804813,208.822449 L296.975936,208.822449 C300.289644,208.822449 302.975936,211.50874 302.975936,214.822449 L302.975936,236.22449 L302.975936,236.22449 L221.804813,236.22449 L221.804813,214.822449 C221.804813,211.50874 224.491104,208.822449 227.804813,208.822449 Z" id="Rectangle" fill="#91D6FF"></path>
                    </g>
                    <g id="ElementCard20" transform="translate(29.855615, 17.008163)">
                        <g id="Rectangle">
                            <use fill="black" fill-opacity="1" filter="url(#filter-2)" xlink:href="#path-1"></use>
                            <use fill="#FFFFFF" fill-rule="evenodd" xlink:href="#path-1"></use>
                        </g>
                        <path d="M41.7084527,29.0234645 L67.1360158,29.0234645 C67.9796588,29.0234645 68.6635666,29.7073723 68.6635666,30.5510153 C68.6635666,31.3946583 67.9796588,32.0785661 67.1360158,32.0785661 L41.7084527,32.0785661 C40.8648097,32.0785661 40.1809019,31.3946583 40.1809019,30.5510153 C40.1809019,29.7073723 40.8648097,29.0234645 41.7084527,29.0234645 Z" id="Rectangle" fill="#C7C1FF" opacity="0.454078311"></path>
                        <path d="M41.7084527,20.3673435 L56.9636356,20.3673435 C57.8072786,20.3673435 58.4911864,21.0512513 58.4911864,21.8948943 C58.4911864,22.7385373 57.8072786,23.4224451 56.9636356,23.4224451 L41.7084527,23.4224451 C40.8648097,23.4224451 40.1809019,22.7385373 40.1809019,21.8948943 C40.1809019,21.0512513 40.8648097,20.3673435 41.7084527,20.3673435 Z" id="Rectangle" fill="#8478FF"></path>
                        <g id="Group-9" transform="translate(78.327328, 13.238773)">
                            <path d="M36.6295477,5.03689567 C38.7994071,2.18249759 42.8698069,1.62952194 45.7210401,3.80178999 C46.3769307,4.30149313 46.9316989,4.92174054 47.3556628,5.62934682 C47.5741328,5.99397883 47.4559729,6.46687306 47.0917452,6.68558564 C46.7275175,6.90429821 46.2551476,6.78600714 46.0366775,6.42137513 C45.7132263,5.88152693 45.2899816,5.40832672 44.7895884,5.02709234 C42.6587139,3.40364372 39.6352878,3.77534548 37.9566359,5.83825039 L37.8534914,5.96938129 L35.4687921,9.10639601 C31.7436714,14.0067029 25.4410378,16.1673621 19.5099378,14.6014645 L19.2559838,14.5320702 L17.3372317,13.9899562 C17.2137371,13.9550647 17.0892539,13.9237802 16.9639403,13.8961425 C13.455904,13.1224504 9.98496469,15.2939492 9.12580636,18.7637546 L9.08566972,18.9354403 L8.69002978,20.7333159 C8.54999268,21.3696756 8.27837427,21.9696184 7.89266748,22.4945064 C6.36723397,24.5703883 3.44965692,25.0152422 1.37607674,23.4881154 C1.03395538,23.2361538 0.960640019,22.7542465 1.2123223,22.4117454 C1.46400458,22.0692442 1.94537755,21.9958475 2.28749891,22.2478092 C3.67683636,23.2710126 5.63166748,22.9729522 6.65373642,21.5820725 C6.87986333,21.2743484 7.04746484,20.9281224 7.14868906,20.5607376 L7.18798406,20.402042 L7.583624,18.6041663 C8.55188231,14.2041857 12.8997449,11.4230964 17.2948469,12.3924295 L17.5257582,12.4468966 L17.754988,12.5080698 L19.6737401,13.0501838 C24.9884209,14.5517652 30.674073,12.6987409 34.0888647,8.37520901 L34.2448484,8.1739104 L36.6295477,5.03689567 Z" id="Path" fill="#8478FF"></path>
                            <path d="M29.698819,4.10617156 C31.2691888,0.609638026 35.3735778,-0.950421733 38.8662367,0.621680611 C39.5678762,0.937499912 40.2121258,1.36801027 40.7725861,1.89557059 C42.0919058,3.13744405 43.3133923,5.10045816 44.4585527,7.78779457 C44.6252108,8.17888932 44.4436204,8.63118725 44.0529593,8.79803028 C43.6622982,8.96487332 43.2105018,8.78308139 43.0438437,8.39198664 C41.9748655,5.88342617 40.859415,4.09081936 39.7189992,3.0173479 C39.2828603,2.60681102 38.7815181,2.27179647 38.2355163,2.0260322 C35.5670151,0.824896591 32.4396295,1.97332138 31.1702097,4.59067958 L31.1016126,4.73759403 L30.6067842,5.83937059 C30.4915657,6.09591425 30.3592172,6.34439723 30.2106374,6.58313234 C28.3832433,9.51935332 24.5242095,10.4165907 21.5912442,8.58716818 C21.2419656,8.3693074 20.8589107,8.21114734 20.4577723,8.11916737 C18.506103,7.67165492 16.5614218,8.85484773 16.047107,10.7748945 L16.0135633,10.9100355 L15.1574947,14.6517725 C14.8995652,15.7791404 14.3523199,16.8196434 13.5698151,17.6705017 C11.129209,20.3242998 7.0313574,20.5384942 4.32966527,18.1868561 L4.18628476,18.0584203 L0.699797313,14.8448964 C0.387336147,14.5568984 0.367245966,14.0698489 0.654924639,13.7570409 C0.923424734,13.4650867 1.36512854,13.4281029 1.67687155,13.6586224 L1.74157394,13.7121184 L5.22806139,16.9256423 C7.30133139,18.8365921 10.5294621,18.70314 12.4382931,16.6275686 C12.9933121,16.0240675 13.394301,15.2964013 13.60859,14.5066862 L13.6582538,14.3080006 L14.5143223,10.5662637 C15.1613838,7.73806301 17.9760982,5.97048258 20.801163,6.61826226 C21.2976871,6.73211389 21.7746255,6.9176428 22.2171066,7.1687086 L22.4045883,7.28030279 C24.6165921,8.66002915 27.5270245,7.98334453 28.9052211,5.76888538 C28.9799257,5.64885147 29.0491897,5.52555012 29.1128122,5.39935837 L29.2039898,5.20795007 L29.698819,4.10617156 Z" id="Path" fill="#C7C1FF"></path>
                        </g>
                        <ellipse id="Oval" fill="#8478FF" cx="22.633546" cy="26.2229548" rx="10.4266897" ry="10.4382636"></ellipse>
                    </g>
                    <g id="ElementCard3" transform="translate(29.855615, 75.591837)">
                        <mask id="mask-4" fill="white">
                            <use xlink:href="#path-3"></use>
                        </mask>
                        <g id="Rectangle">
                            <use fill="black" fill-opacity="1" filter="url(#filter-5)" xlink:href="#path-3"></use>
                            <use fill="#FFFFFF" fill-rule="evenodd" xlink:href="#path-3"></use>
                        </g>
                        <g id="Path-3" stroke-linecap="round" mask="url(#mask-4)">
                            <use fill="black" fill-opacity="1" filter="url(#filter-7)" xlink:href="#path-6"></use>
                            <use stroke="#8EEAF6" stroke-width="4.004" xlink:href="#path-6"></use>
                        </g>
                        <path d="M22.6524064,108.389866 C36.0424523,104.556837 45.6894817,98.7285067 51.5934946,90.9048741 C60.4495139,79.1694253 63.4351742,67.7944231 78.6666599,67.7944231 C93.8981456,67.7944231 95.8510232,85.2160139 112.316621,85.2160139 C128.782219,85.2160139 129.682684,62.9988029 135.155236,54.1769525 C138.803604,48.2957189 143.775923,45.355102 150.072193,45.355102 L150.072193,119.756735 C150.072193,121.457772 148.69323,122.836735 146.992193,122.836735 L25.7324064,122.836735 C24.0313694,122.836735 22.6524064,121.457772 22.6524064,119.756735 L22.6524064,108.389866 L22.6524064,108.389866 Z" id="Path-3" fill="#CEF9FF" opacity="0.414736793" mask="url(#mask-4)"></path>
                        <rect id="Rectangle" fill="#8EEAF6" mask="url(#mask-4)" x="13.2139037" y="14.1734694" width="52.855615" height="5.66938776"></rect>
                        <path d="M16.0485976,28.3469388 L34.9193168,28.3469388 C36.484875,28.3469388 37.7540107,29.6160745 37.7540107,31.1816327 C37.7540107,32.7471909 36.484875,34.0163265 34.9193168,34.0163265 L16.0485976,34.0163265 C14.4830394,34.0163265 13.2139037,32.7471909 13.2139037,31.1816327 C13.2139037,29.6160745 14.4830394,28.3469388 16.0485976,28.3469388 Z" id="Rectangle" fill-opacity="0.401934003" fill="#8EEAF6" mask="url(#mask-4)"></path>
                        <path d="M136.386364,20.7877551 C138.210823,20.7877551 139.68984,19.3070968 139.68984,17.4806122 C139.68984,15.6541277 138.210823,14.1734694 136.386364,14.1734694 C134.561904,14.1734694 133.082888,15.6541277 133.082888,17.4806122 C133.082888,19.3070968 134.561904,20.7877551 136.386364,20.7877551 Z" id="Oval" fill-opacity="0.451704545" fill="#8EEAF6" mask="url(#mask-4)"></path>
                        <path d="M145.824866,20.7877551 C147.649326,20.7877551 149.128342,19.3070968 149.128342,17.4806122 C149.128342,15.6541277 147.649326,14.1734694 145.824866,14.1734694 C144.000407,14.1734694 142.52139,15.6541277 142.52139,17.4806122 C142.52139,19.3070968 144.000407,20.7877551 145.824866,20.7877551 Z" id="Oval" fill-opacity="0.451704545" fill="#8EEAF6" mask="url(#mask-4)"></path>
                        <path d="M155.263369,20.7877551 C157.087828,20.7877551 158.566845,19.3070968 158.566845,17.4806122 C158.566845,15.6541277 157.087828,14.1734694 155.263369,14.1734694 C153.43891,14.1734694 151.959893,15.6541277 151.959893,17.4806122 C151.959893,19.3070968 153.43891,20.7877551 155.263369,20.7877551 Z" id="Oval" fill-opacity="0.451704545" fill="#8EEAF6" mask="url(#mask-4)"></path>
                    </g>
                    <g id="ElementCard11" transform="translate(225.232620, 30.236735)">
                        <g id="Rectangle">
                            <use fill="black" fill-opacity="1" filter="url(#filter-9)" xlink:href="#path-8"></use>
                            <use fill="#FFFFFF" fill-rule="evenodd" xlink:href="#path-8"></use>
                        </g>
                        <g id="Group-26" transform="translate(31.788688, 84.863931)">
                            <polygon id="Path" fill="#E7E4FF" points="8.83019118 1.72489101e-14 8.83019118 59.1864269 0 59.1864269 0 1.72489101e-14"></polygon>
                            <polygon id="Path" fill="#C7C1FF" points="8.83019118 14.1439886 8.83019118 59.1864269 0 59.1864269 0 14.1439886"></polygon>
                            <polygon id="Path" fill="#8478FF" points="8.83019118 42.4319657 8.83019118 59.1864269 0 59.1864269 0 42.4319657"></polygon>
                        </g>
                        <g id="Group-26" transform="translate(52.981147, 70.719943)">
                            <polygon id="Path" fill="#E7E4FF" points="8.83019118 1.03801722e-13 8.83019118 73.3304155 0 73.3304155 0 1.03801722e-13"></polygon>
                            <polygon id="Path" fill="#C7C1FF" points="8.83019118 21.2159829 8.83019118 73.3304155 0 73.3304155 0 21.2159829"></polygon>
                            <polygon id="Path" fill="#8478FF" points="8.83019118 56.5759543 8.83019118 73.3304155 0 73.3304155 0 56.5759543"></polygon>
                        </g>
                        <g id="Group-26" transform="translate(74.173606, 81.327934)">
                            <polygon id="Path" fill="#E7E4FF" points="8.83019118 1.69084619e-13 8.83019118 62.722424 0 62.722424 0 1.69084619e-13"></polygon>
                            <polygon id="Path" fill="#C7C1FF" points="8.83019118 21.2159829 8.83019118 62.722424 0 62.722424 0 21.2159829"></polygon>
                            <polygon id="Path" fill="#8478FF" points="8.83019118 49.50396 8.83019118 62.722424 0 62.722424 0 49.50396"></polygon>
                        </g>
                        <g id="Group-26" transform="translate(95.366065, 63.647949)">
                            <polygon id="Path" fill="#E7E4FF" points="8.83019118 1.14928181e-13 8.83019118 80.4024098 0 80.4024098 0 1.14928181e-13"></polygon>
                            <polygon id="Path" fill="#C7C1FF" points="8.83019118 21.2159829 8.83019118 80.4024098 0 80.4024098 0 21.2159829"></polygon>
                            <polygon id="Path" fill="#8478FF" points="8.83019118 49.50396 8.83019118 80.4024098 0 80.4024098 0 49.50396"></polygon>
                        </g>
                        <g id="Group-26" transform="translate(116.558524, 49.503960)">
                            <polygon id="Path" fill="#E7E4FF" points="8.83019118 -6.56047427e-14 8.83019118 94.5463983 0 94.5463983 0 -6.56047427e-14"></polygon>
                            <polygon id="Path" fill="#C7C1FF" points="8.83019118 28.2879771 8.83019118 94.5463983 0 94.5463983 0 28.2879771"></polygon>
                            <polygon id="Path" fill="#8478FF" points="8.83019118 70.7199429 8.83019118 94.5463983 0 94.5463983 0 70.7199429"></polygon>
                        </g>
                        <g id="Group-26" transform="translate(137.750982, 70.719943)">
                            <polygon id="Path" fill="#E7E4FF" points="8.83019118 1.00748731e-13 8.83019118 73.3304155 0 73.3304155 0 1.00748731e-13"></polygon>
                            <polygon id="Path" fill="#C7C1FF" points="8.83019118 21.2159829 8.83019118 73.3304155 0 73.3304155 0 21.2159829"></polygon>
                            <polygon id="Path" fill="#8478FF" points="8.83019118 53.7471566 8.83019118 73.3304155 0 73.3304155 0 53.7471566"></polygon>
                        </g>
                        <g id="Group-26" transform="translate(158.943441, 77.791937)">
                            <polygon id="Path" fill="#E7E4FF" points="8.83019118 1.10342437e-14 8.83019118 66.2584212 0 66.2584212 0 1.10342437e-14"></polygon>
                            <polygon id="Path" fill="#C7C1FF" points="8.83019118 14.1439886 8.83019118 66.2584212 0 66.2584212 0 14.1439886"></polygon>
                            <polygon id="Path" fill="#8478FF" points="8.83019118 41.7247663 8.83019118 66.2584212 0 66.2584212 0 41.7247663"></polygon>
                        </g>
                        <g id="Group-26" transform="translate(180.135900, 63.647949)">
                            <polygon id="Path" fill="#E7E4FF" points="8.83019118 1.67371137e-14 8.83019118 80.4024098 0 80.4024098 0 1.67371137e-14"></polygon>
                            <polygon id="Path" fill="#C7C1FF" points="8.83019118 28.2879771 8.83019118 80.4024098 0 80.4024098 0 28.2879771"></polygon>
                            <polygon id="Path" fill="#8478FF" points="8.83019118 62.9407491 8.83019118 80.4024098 0 80.4024098 0 62.9407491"></polygon>
                        </g>
                        <g id="Group-26" transform="translate(201.328359, 77.791937)">
                            <polygon id="Path" fill="#E7E4FF" points="8.83019118 1.56318453e-14 8.83019118 66.2584212 0 66.2584212 0 1.56318453e-14"></polygon>
                            <polygon id="Path" fill="#C7C1FF" points="8.83019118 14.1439886 8.83019118 66.2584212 0 66.2584212 0 14.1439886"></polygon>
                            <polygon id="Path" fill="#8478FF" points="8.83019118 48.7967606 8.83019118 66.2584212 0 66.2584212 0 48.7967606"></polygon>
                        </g>
                        <path d="M31.0846253,28.2879771 L101.72145,28.2879771 C102.893176,28.2879771 103.843048,29.2378491 103.843048,30.4095754 C103.843048,31.5813018 102.893176,32.5311737 101.72145,32.5311737 L31.0846253,32.5311737 C29.912899,32.5311737 28.9630271,31.5813018 28.9630271,30.4095754 C28.9630271,29.2378491 29.912899,28.2879771 31.0846253,28.2879771 Z" id="Rectangle" fill="#8C81FF" opacity="0.575730097"></path>
                        <rect id="Rectangle" fill="#8478FF" x="28.9630271" y="16.2655869" width="39.5592565" height="4.24319657"></rect>
                    </g>
                    <g id="Chair4" transform="translate(411.171123, 275.910204)">
                        <polygon id="Path" fill="#BFE7FF" transform="translate(89.590267, 134.175510) scale(-1, 1) translate(-89.590267, -134.175510) " points="92.3120497 88.9715918 80.8690909 179.379429 86.8684851 179.299822 98.3114439 89.8180661"></polygon>
                        <path d="M0,93.7376571 C-7.58852369e-15,88.5212172 4.22876008,84.2924571 9.4452,84.2924571 L47.2075641,84.2924571 C52.9290431,84.2924571 57.7110568,79.9391217 58.2468403,74.2427845 L64.2846873,10.0496727 C64.8204709,4.35333543 69.6024846,1.05101865e-15 75.3239636,0 L99.0241302,0 C105.147864,6.51445281e-16 110.11213,4.96426669 110.11213,11.088 C110.11213,11.3714703 110.10126,11.6548363 110.079542,11.9374734 L103.855155,92.9443305 C103.411247,98.7215453 98.5939868,103.182857 92.7997427,103.182857 L9.4452,103.182857 C4.22876008,103.182857 6.38829645e-16,98.9540971 0,93.7376571 Z" id="Path" fill="#91D6FF"></path>
                        <path d="M98.770362,-4.54747351e-13 C99.3452728,-4.53831714e-13 99.9099641,0.0437545685 100.461288,0.128115346 C100.550032,0.689963394 100.595546,1.26569242 100.595546,1.85205195 C100.595546,2.13631442 100.584615,2.42047176 100.562776,2.70389411 L94.3431684,83.4221279 C93.8980924,89.1983365 89.0812691,93.6582857 83.2879385,93.6582857 L0.15785132,93.6582857 L0.00174853035,93.6569132 C0.000584601796,93.5959378 7.5014265e-18,93.5348205 0,93.4735668 C-6.37170347e-16,88.270676 4.21777629,84.0528997 9.42066701,84.0528997 L47.0706042,84.0528997 C52.790954,84.0528997 57.572413,79.7012309 58.1096041,74.0061603 L64.1426164,10.0467394 C64.6798075,4.35166889 69.4612665,-4.63857922e-13 75.1816164,-4.54747351e-13 L98.770362,-4.54747351e-13 Z" id="Combined-Shape" fill="#BFE7FF"></path>
                    </g>
                    <g id="Vase2" transform="translate(25.000000, 297.161224)">
                        <g id="Group-39" transform="translate(0.000000, 0.838776)">
                            <path d="M4.42970395,56.0038809 C13.4502152,55.9751349 20.7860877,63.2644008 20.8148337,72.2849121 C20.814944,72.3195125 20.8149443,72.3541132 20.8148346,72.3887136 L20.7923745,79.4771546 L20.7923745,79.4771546 C11.7718633,79.5059006 4.43599079,72.2166347 4.40724477,63.1961234 C4.40713451,63.161523 4.40713419,63.1269223 4.40724383,63.0923219 L4.42970395,56.0038809 L4.42970395,56.0038809 Z" id="Rectangle" fill="#02D3AF" transform="translate(12.611039, 67.740518) rotate(-24.000000) translate(-12.611039, -67.740518) "></path>
                            <path d="M12.1742786,64.301643 C20.4236209,70.1719909 25.7729468,76.7138347 28.2380644,83.9255523 C30.7152393,91.1725434 31.7301524,103.320986 31.2692096,120.346848 C31.262072,120.61049 31.46819,120.83005 31.7295871,120.83743 C31.9909841,120.844448 32.2086745,120.63656 32.2158121,120.372917 C32.679621,103.241188 31.6566517,90.9963123 29.1333098,83.6142595 C26.5979108,76.196933 21.1216056,69.4998026 12.7202024,63.5212461 C12.5065368,63.3691986 12.2111174,63.4206376 12.0603647,63.6361383 C11.909612,63.851639 11.960613,64.1495956 12.1742786,64.301643 Z" id="Path" fill="#02B596"></path>
                            <path d="M49.965738,51.7697446 C58.9139163,51.7403537 66.1916741,58.9704594 66.221065,67.9186377 C66.2211812,67.9540183 66.2211815,67.9893992 66.2210659,68.0247798 L66.1960492,75.6832112 L66.1960492,75.6832112 C57.2478709,75.7126021 49.9701132,68.4824963 49.9407223,59.5343181 C49.9406061,59.4989375 49.9406057,59.4635566 49.9407213,59.428176 L49.965738,51.7697446 L49.965738,51.7697446 Z" id="Rectangle" fill="#02D3AF" transform="translate(58.080894, 63.726478) scale(-1, 1) rotate(-25.000000) translate(-58.080894, -63.726478) "></path>
                            <g id="Group-88" transform="translate(20.755961, 71.269687) rotate(-12.000000) translate(-20.755961, -71.269687) translate(11.755961, 37.269687)">
                                <path d="M0.496079497,0.617868565 C8.51524346,0.617868565 15.0160603,7.11868541 15.0160603,15.1378494 L15.0160603,21.6298098 L15.0160603,21.6298098 C6.99689634,21.6298098 0.496079497,15.128993 0.496079497,7.10982904 L0.496079497,0.617868565 L0.496079497,0.617868565 Z" id="Rectangle" fill="#02D3AF"></path>
                                <path d="M5.08517434,6.77290275 C10.1209125,12.1580639 13.1750379,17.4598366 14.2592226,22.6753182 L14.3243316,23.0028367 L14.3870588,23.3463785 C15.4028711,29.1400325 15.9908073,43.8744402 16.1430673,67.4920251 C16.1447676,67.7557599 16.3581246,67.9681689 16.6196136,67.9664644 C16.8811025,67.9647392 17.0917029,67.7495498 17.0900128,67.485815 L17.0686471,64.5718147 L17.0370261,61.1977762 C16.8160399,40.2528689 16.2012664,27.3631553 15.1860263,22.4793323 C14.0625858,17.0750102 10.9213764,11.622065 5.77406997,6.11759405 C5.59465241,5.92572695 5.29499119,5.91688378 5.10475792,6.09784228 C4.91452464,6.27880078 4.90575678,6.58103565 5.08517434,6.77290275 Z" id="Path" fill="#02B596"></path>
                            </g>
                            <path d="M42.7671178,35.4217776 C51.4118641,35.420482 58.4208659,42.4273833 58.4221614,51.0721295 C58.4221617,51.0736868 58.4221617,51.075244 58.4221614,51.0768012 L58.4210151,58.7912388 L58.4210151,58.7912388 C49.7762689,58.7925343 42.7672671,51.7856331 42.7659715,43.1408868 C42.7659713,43.1393296 42.7659713,43.1377724 42.7659715,43.1362151 L42.7671178,35.4217776 L42.7671178,35.4217776 Z" id="Rectangle" fill="#02D3AF" transform="translate(50.594066, 47.106508) scale(-1, 1) rotate(-1.000000) translate(-50.594066, -47.106508) "></path>
                            <path d="M52.9504381,38.6616979 C47.3893559,46.8224695 43.3260895,54.6993453 40.7622035,62.2934074 C38.202787,69.8742312 35.6500108,81.5813826 33.099617,97.423954 C33.0577079,97.6842851 33.2329769,97.929591 33.4910912,97.9718599 C33.7492055,98.0141289 33.9924225,97.8373546 34.0343315,97.5770235 L34.3478079,95.6507111 L34.5629391,94.3529656 C36.929381,80.1862598 39.2957501,69.5999184 41.6586137,62.6012717 C44.1929439,55.0947518 48.2164993,47.2948581 53.7308443,39.2026724 C53.8789582,38.9853184 53.8243284,38.6880168 53.6088252,38.5386308 C53.393322,38.3892448 53.098552,38.4443438 52.9504381,38.6616979 Z" id="Path" fill="#02B596"></path>
                            <g id="Group-87" transform="translate(33.142697, 13.911947)">
                                <path d="M7.76208073,19.4044636 C4.75556294,27.9693943 2.58783229,38.5601356 1.25888876,51.1766874 C-0.0700547599,63.7932392 -0.34682576,76.4097911 0.428575762,89.0263429 L2.6292102,89.226475 C1.8413211,74.5011252 1.92054365,61.8457925 2.86687783,51.2604768 C3.81321201,40.6751611 5.81171872,30.0898453 8.86239795,19.5045296 L7.76208073,19.4044636 Z" id="Path" fill="#02B596"></path>
                                <path d="M10.0734726,24.1767025 C14.0851052,24.1847711 17.330623,20.9146332 17.3225546,16.8726302 C17.3144561,12.8306273 11.6398756,1.90564808 10.028927,1.90240125 C8.41797838,1.89915587 2.78704939,12.8013542 2.79512417,16.8433571 C2.80321634,20.8853601 6.06184005,24.168604 10.0734726,24.1767025 Z" id="Oval" fill="#C2FFF4" transform="translate(10.058839, 13.039552) rotate(14.000000) translate(-10.058839, -13.039552) "></path>
                                <path d="M10.2149519,20.9735245 C13.0056283,20.9791376 15.2632378,18.6432028 15.257475,15.7560578 C15.25169,12.8689128 10.9993082,6.45391871 9.87865819,6.45165997 C8.75800814,6.44940243 5.14575684,12.8485491 5.15152384,15.735694 C5.15730466,18.622839 7.42427554,20.9678911 10.2149519,20.9735245 Z" id="Oval" fill="#02D3AF" transform="translate(10.204499, 13.712592) rotate(14.000000) translate(-10.204499, -13.712592) "></path>
                                <path d="M9.58270016,20.0933927 L13.6404689,7.42936872 C13.8817052,6.67648638 13.4721313,5.86891441 12.7256601,5.62560624 C11.9791889,5.38229806 11.1784937,5.79538954 10.9372574,6.54827187 L6.87948871,19.2122959 C6.6382524,19.9651782 7.04782623,20.7727502 7.79429746,21.0160584 C8.54076869,21.2593665 9.34146386,20.8462751 9.58270016,20.0933927 Z" id="Path" fill="url(#linearGradient-17)"></path>
                            </g>
                            <g id="Group-87" transform="translate(19.400683, 46.275460) scale(-1, 1) rotate(6.000000) translate(-19.400683, -46.275460) translate(9.400683, 1.275460)">
                                <path d="M7.76208073,19.4044636 C4.75556294,27.9693943 2.58783229,38.5601356 1.25888876,51.1766874 C-0.0700547599,63.7932392 -0.34682576,76.4097911 0.428575762,89.0263429 L2.6292102,89.226475 C1.8413211,74.5011252 1.92054365,61.8457925 2.86687783,51.2604768 C3.81321201,40.6751611 5.81171872,30.0898453 8.86239795,19.5045296 L7.76208073,19.4044636 Z" id="Path" fill="#02B596"></path>
                                <path d="M10.0734726,24.1767025 C14.0851052,24.1847711 17.330623,20.9146332 17.3225546,16.8726302 C17.3144561,12.8306273 11.6398756,1.90564808 10.028927,1.90240125 C8.41797838,1.89915587 2.78704939,12.8013542 2.79512417,16.8433571 C2.80321634,20.8853601 6.06184005,24.168604 10.0734726,24.1767025 Z" id="Oval" fill="#C2FFF4" transform="translate(10.058839, 13.039552) rotate(14.000000) translate(-10.058839, -13.039552) "></path>
                                <path d="M10.2149519,20.9735245 C13.0056283,20.9791376 15.2632378,18.6432028 15.257475,15.7560578 C15.25169,12.8689128 10.9993082,6.45391871 9.87865819,6.45165997 C8.75800814,6.44940243 5.14575684,12.8485491 5.15152384,15.735694 C5.15730466,18.622839 7.42427554,20.9678911 10.2149519,20.9735245 Z" id="Oval" fill="#02D3AF" transform="translate(10.204499, 13.712592) rotate(14.000000) translate(-10.204499, -13.712592) "></path>
                                <path d="M9.58270016,20.0933927 L13.6404689,7.42936872 C13.8817052,6.67648638 13.4721313,5.86891441 12.7256601,5.62560624 C11.9791889,5.38229806 11.1784937,5.79538954 10.9372574,6.54827187 L6.87948871,19.2122959 C6.6382524,19.9651782 7.04782623,20.7727502 7.79429746,21.0160584 C8.54076869,21.2593665 9.34146386,20.8462751 9.58270016,20.0933927 Z" id="Path" fill="url(#linearGradient-17)"></path>
                            </g>
                            <path d="M66.0193312,58.348269 C54.7919939,62.7417856 46.9632436,67.8189882 42.5366476,73.5989079 C38.1104374,79.3783238 35.1857174,88.3414786 33.7431904,100.490257 C33.7120965,100.752126 33.897369,100.989836 34.1570082,101.021197 C34.4166475,101.052558 34.6523333,100.865694 34.6834272,100.603825 C36.1074227,88.6111168 38.9814011,79.8034658 43.2860649,74.182756 C47.5903429,68.5625501 55.2810864,63.5748495 66.3618628,59.2386855 C66.6056507,59.1432857 66.7266016,58.8666223 66.6320141,58.6207405 C66.5374266,58.3748588 66.2631191,58.2528691 66.0193312,58.348269 Z" id="Path" fill="#02B596"></path>
                        </g>
                        <g id="Group-38" transform="translate(9.000000, 63.838776)">
                            <path d="M26.9292167,30.5952364 C23.3753227,17.930419 14.5810637,13.4510183 0.546439628,17.1570344 C11.0541171,20.5911081 18.9873228,25.0705088 24.3460566,30.5952364 L26.9292167,30.5952364 Z" id="Path-151" fill="#02B596"></path>
                            <path d="M49.9743878,27.6768516 C46.4204938,15.0120342 38.7206627,9.60560586 26.8748945,11.4575666 C34.0694451,17.3715401 40.9082228,22.7779685 47.3912277,27.6768516 L49.9743878,27.6768516 Z" id="Path-151" fill="#02B596" transform="translate(38.424641, 19.390013) scale(-1, 1) translate(-38.424641, -19.390013) "></path>
                            <path d="M21.1930289,29.1213891 C22.4560321,17.5137564 28.334791,8.61450338 38.8293056,2.42363012 C33.4963463,14.6204108 28.3658899,23.3795123 23.4379362,28.7009344 L21.1930289,29.1213891 Z" id="Path-151" fill="#02B596" transform="translate(30.011167, 15.772510) rotate(-22.000000) translate(-30.011167, -15.772510) "></path>
                            <path d="M22.1728688,27.6768516 C20.0656716,21.5873947 17.9696284,13.0820797 16.399272,4.83731807 C24.1619616,7.95933274 26.6553871,20.3973923 24.1619616,27.6768516 L22.1728688,27.6768516 Z" id="Path-114" fill="#02D3AF"></path>
                            <g id="Group-89" transform="translate(6.356670, 21.127769)">
                                <mask id="mask-19" fill="white">
                                    <use xlink:href="#path-18"></use>
                                </mask>
                                <use id="Rectangle" fill="#7569EC" xlink:href="#path-18"></use>
                                <path d="M-3.94736842,-4.02857143 L8.99697458,-4.02857143 C0.975573655,26.4241399 25.1229107,47.360379 8.99697458,77.8130904 L-3.94736842,77.8130904 L-3.94736842,-4.02857143 Z" id="Rectangle" fill="#8175FF" mask="url(#mask-19)"></path>
                            </g>
                        </g>
                    </g>
                    <g id="Chair4" transform="translate(571.625668, 275.910204)">
                        <polygon id="Path-25" fill="#91D6FF" points="47.1204989 88.9715918 35.6775401 179.379429 41.6769343 179.299822 53.119893 89.8180661"></polygon>
                        <polygon id="Path" fill="#91D6FF" points="13.8214615 88.9715918 2.37850267 179.379429 8.37789683 179.299822 19.8208556 89.8180661"></polygon>
                        <polygon id="Path" fill="#BFE7FF" transform="translate(89.590267, 134.175510) scale(-1, 1) translate(-89.590267, -134.175510) " points="92.3120497 88.9715918 80.8690909 179.379429 86.8684851 179.299822 98.3114439 89.8180661"></polygon>
                        <path d="M0,93.7376571 C-7.58852369e-15,88.5212172 4.22876008,84.2924571 9.4452,84.2924571 L47.2075641,84.2924571 C52.9290431,84.2924571 57.7110568,79.9391217 58.2468403,74.2427845 L64.2846873,10.0496727 C64.8204709,4.35333543 69.6024846,1.05101865e-15 75.3239636,0 L99.0241302,0 C105.147864,6.51445281e-16 110.11213,4.96426669 110.11213,11.088 C110.11213,11.3714703 110.10126,11.6548363 110.079542,11.9374734 L103.855155,92.9443305 C103.411247,98.7215453 98.5939868,103.182857 92.7997427,103.182857 L9.4452,103.182857 C4.22876008,103.182857 6.38829645e-16,98.9540971 0,93.7376571 Z" id="Path" fill="#91D6FF"></path>
                        <path d="M98.770362,-4.54747351e-13 C99.3452728,-4.53831714e-13 99.9099641,0.0437545685 100.461288,0.128115346 C100.550032,0.689963394 100.595546,1.26569242 100.595546,1.85205195 C100.595546,2.13631442 100.584615,2.42047176 100.562776,2.70389411 L94.3431684,83.4221279 C93.8980924,89.1983365 89.0812691,93.6582857 83.2879385,93.6582857 L0.15785132,93.6582857 L0.00174853035,93.6569132 C0.000584601796,93.5959378 7.5014265e-18,93.5348205 0,93.4735668 C-6.37170347e-16,88.270676 4.21777629,84.0528997 9.42066701,84.0528997 L47.0706042,84.0528997 C52.790954,84.0528997 57.572413,79.7012309 58.1096041,74.0061603 L64.1426164,10.0467394 C64.6798075,4.35166889 69.4612665,-4.63857922e-13 75.1816164,-4.54747351e-13 L98.770362,-4.54747351e-13 Z" id="Combined-Shape" fill="#BFE7FF"></path>
                    </g>
                    <g id="Group-26" transform="translate(198.804813, 310.871429)">
                        <g id="Group-25" transform="translate(11.570160, 0.000000)">
                            <polygon id="Rectangle" fill="#E9E9E9" points="112.829305 -4.47575684e-13 124.246118 -4.47575684e-13 124.246118 144.879314 112.829305 144.879314"></polygon>
                            <polygon id="Rectangle" fill="#D3D3D3" points="1 4.76228571 91.1887059 4.76228571 91.1887059 31.6708107 16.0280214 31.6708107 16.0280214 144.879314 1 144.879314"></polygon>
                            <polygon id="Rectangle" fill="#DBDBDB" points="0.416812834 4.76228571 8.41681283 4.76228571 8.41681283 144.879314 0.416812834 144.879314"></polygon>
                        </g>
                        <g id="Group-25">
                            <polygon id="Rectangle" fill="#E9E9E9" points="404.624909 4.76228571 420.624909 4.76228571 420.624909 144.879314 404.624909 144.879314"></polygon>
                            <polygon id="Rectangle" fill="#DBDBDB" points="404.624909 -3.33888846e-13 414.624909 -3.33888846e-13 414.624909 144.879314 404.624909 144.879314"></polygon>
                            <polygon id="Rectangle" fill="#D3D3D3" points="272.201583 4.76228571 411.201583 4.76228571 411.201583 31.3185168 290.909124 31.3185168 290.909124 144.879314 272.201583 144.879314"></polygon>
                            <polygon id="Rectangle" fill="#DBDBDB" points="23.7850267 -3.52990207e-13 272.674567 -5.07571128e-13 272.674567 40.2299755 23.7850267 40.2299755"></polygon>
                            <polygon id="Rectangle" fill="#E9E9E9" points="266.96616 4.76228571 278.382973 4.76228571 278.382973 40.2299755 266.96616 40.2299755"></polygon>
                            <polygon id="Rectangle" fill="#DBDBDB" points="272.237176 4.76228571 281.237176 4.76228571 281.237176 144.879314 272.237176 144.879314"></polygon>
                            <path d="M280.814701,0 L425.940379,0 C429.885586,-1.35972169e-14 433.083807,3.19822191 433.083807,7.14342857 C433.083807,11.0886352 429.885586,14.2868571 425.940379,14.2868571 L280.814701,14.2868571 C276.869495,14.2868571 273.671273,11.0886352 273.671273,7.14342857 C273.671273,3.19822191 276.869495,7.24722706e-16 280.814701,0 Z" id="Rectangle" fill="#E9E9E9"></path>
                            <polygon id="Rectangle" fill="#E9E9E9" points="20.9308235 2.85737143 269.820364 2.85737143 269.820364 17.1442286 20.9308235 17.1442286"></polygon>
                            <path d="M7.14342857,0 L283.607759,0 C287.552965,-1.35972169e-14 290.751187,3.19822191 290.751187,7.14342857 C290.751187,11.0886352 287.552965,14.2868571 283.607759,14.2868571 L7.14342857,14.2868571 C3.19822191,14.2868571 4.83148471e-16,11.0886352 0,7.14342857 C-4.83148471e-16,3.19822191 3.19822191,7.24722706e-16 7.14342857,0 Z" id="Rectangle" fill="#DBDBDB"></path>
                        </g>
                    </g>

                    <g id="Chair8" transform="translate(228.251337, 367.800000) scale(-1, 1) translate(-228.251337, -367.800000) translate(172.751337, 277.800000)">
                        <polygon id="Path" fill="#BFE7FF" transform="translate(54.705561, 138.900000) scale(-1, 1) translate(-54.705561, -138.900000) " points="57.4273438 98.4205714 45.984385 179.379429 51.9837792 179.299822 63.426738 99.2670457"></polygon>
                        <polygon id="Path" fill="#91D6FF" points="13.8214615 98.4205714 2.37850267 179.379429 8.37789683 179.299822 19.8208556 99.2670457"></polygon>
                        <polygon id="Path" fill="#BFE7FF" transform="translate(89.590267, 138.900000) scale(-1, 1) translate(-89.590267, -138.900000) " points="92.3120497 98.4205714 80.8690909 179.379429 86.8684851 179.299822 98.3114439 99.2670457"></polygon>
                        <path d="M0,93.7376571 C-7.58852369e-15,88.5212172 4.22876008,84.2924571 9.4452,84.2924571 L47.2075641,84.2924571 C52.9290431,84.2924571 57.7110568,79.9391217 58.2468403,74.2427845 L64.2846873,10.0496727 C64.8204709,4.35333543 69.6024846,-7.25338194e-16 75.3239636,0 L99.0241302,0 C105.147864,-4.67762524e-15 110.11213,4.96426669 110.11213,11.088 C110.11213,11.3714703 110.10126,11.6548363 110.079542,11.9374734 L103.855155,92.9443305 C103.411247,98.7215453 98.5939868,103.182857 92.7997427,103.182857 L9.4452,103.182857 C4.22876008,103.182857 6.38829645e-16,98.9540971 0,93.7376571 Z" id="Path" fill="#BFE7FF"></path>
                        <path d="M69.5030079,1.56342235 L63.1961096,83.4221279 C62.7510336,89.1983365 57.9342102,93.6582857 52.1408797,93.6582857 L0.15785132,93.6582857 L0.00172950146,93.6559136 C0.000578230162,93.5952699 7.4604351e-18,93.5344858 0,93.4735668 C-6.37170347e-16,88.270676 4.21777629,84.0528997 9.42066701,84.0528997 L47.0706042,84.0528997 C52.790954,84.0528997 57.572413,79.7012309 58.1096041,74.0061603 L64.1426164,10.0467394 C64.4856468,6.41007842 66.5593309,3.32120641 69.5030079,1.56342235 Z" id="Combined-Shape" fill="#91D6FF"></path>
                    </g>
                    <g id="Front-Laptop3" transform="translate(458.112299, 290.795918) scale(-1, 1) translate(-458.112299, -290.795918) translate(411.612299, 269.295918)">
                        <path d="M7.37748963,39.5003026 L91.5138558,39.5003026 C91.9261342,39.5003026 92.2603518,39.8345203 92.2603518,40.2467986 L92.2603518,41.3436192 C92.2603518,41.7558976 91.9261342,42.0901152 91.5138558,42.0901152 L7.37748963,42.0901152 C6.96521127,42.0901152 6.63099363,41.7558976 6.63099363,41.3436192 L6.63099363,40.2467986 C6.63099363,39.8345203 6.96521127,39.5003026 7.37748963,39.5003026 Z" id="Rectangle" fill="url(#linearGradient-30)"></path>
                        <path d="M7.36960659,39.5003026 L39.6964761,39.5003026 C40.1087545,39.5003026 40.4429721,39.8345203 40.4429721,40.2467986 L40.4429721,41.3436192 C40.4429721,41.7558976 40.1087545,42.0901152 39.6964761,42.0901152 L7.36960659,42.0901152 C6.95732823,42.0901152 6.62311059,41.7558976 6.62311059,41.3436192 L6.62311059,40.2467986 C6.62311059,39.8345203 6.95732823,39.5003026 7.36960659,39.5003026 Z" id="Rectangle" fill="#518DF8"></path>
                        <path d="M4.09042689,0 L59.9016996,0 C61.7131294,4.21725898e-15 63.2424397,1.34595173 63.4725376,3.14270786 L67.6234634,35.5558685 C67.8760189,37.5279879 66.482037,39.3314431 64.5099176,39.5839986 C64.3582608,39.6034202 64.2055208,39.6131606 64.0526255,39.6131606 L8.2413527,39.6131606 C6.42992297,39.6131606 4.90061265,38.2672089 4.67051471,36.4704528 L0.519588905,4.05729214 C0.267033431,2.08517278 1.66101539,0.281717491 3.63313475,0.0291620171 C3.78479153,0.00974039806 3.93753157,-4.16002795e-16 4.09042689,0 Z" id="Rectangle" fill="#518DF8"></path>
                        <path d="M5.78935737,0 L60.4209037,0 C62.2323334,-3.99458904e-15 63.7616437,1.34595173 63.9917417,3.14270786 L68.1426675,35.5558685 C68.3952229,37.5279879 67.001241,39.3314431 65.0291216,39.5839986 C64.8774648,39.6034202 64.7247248,39.6131606 64.5718295,39.6131606 L9.94028318,39.6131606 C8.12885345,39.6131606 6.59954313,38.2672089 6.36944519,36.4704528 L2.21851939,4.05729214 C1.96596391,2.08517278 3.35994587,0.281717491 5.33206523,0.0291620171 C5.48372201,0.00974039806 5.63646205,9.16264835e-16 5.78935737,0 Z" id="Rectangle" fill="url(#linearGradient-31)"></path>
                        <path d="M7.38112511,1.87381867 L59.1396533,1.87381867 C60.7701083,1.87381867 62.1465746,3.08541835 62.3534636,4.70269398 L66.0936069,33.9398368 C66.3206648,35.7147752 65.0658597,37.3377139 63.2909213,37.5647718 C63.1545741,37.5822139 63.017255,37.5909615 62.8797966,37.5909615 L11.1212685,37.5909615 C9.49081347,37.5909615 8.11434718,36.3793618 7.9074582,34.7620862 L4.16731484,5.52494335 C3.94025694,3.75000495 5.19506202,2.12706629 6.97000043,1.90000839 C7.10634769,1.88256625 7.24366674,1.87381867 7.38112511,1.87381867 Z" id="Rectangle" fill="#FFFFFF" fill-rule="nonzero"></path>
                    </g>
                    <g id="Chair8" transform="translate(362.278075, 367.800000) scale(-1, 1) translate(-362.278075, -367.800000) translate(306.778075, 277.800000)">
                        <polygon id="Path" fill="#91D6FF" points="47.1204989 98.4205714 35.6775401 179.379429 41.6769343 179.299822 53.119893 99.2670457"></polygon>
                        <polygon id="Path" fill="#91D6FF" points="13.8214615 98.4205714 2.37850267 179.379429 8.37789683 179.299822 19.8208556 99.2670457"></polygon>
                        <polygon id="Path" fill="#BFE7FF" transform="translate(89.590267, 138.900000) scale(-1, 1) translate(-89.590267, -138.900000) " points="92.3120497 98.4205714 80.8690909 179.379429 86.8684851 179.299822 98.3114439 99.2670457"></polygon>
                        <path d="M0,93.7376571 C-7.58852369e-15,88.5212172 4.22876008,84.2924571 9.4452,84.2924571 L47.2075641,84.2924571 C52.9290431,84.2924571 57.7110568,79.9391217 58.2468403,74.2427845 L64.2846873,10.0496727 C64.8204709,4.35333543 69.6024846,-7.25338194e-16 75.3239636,0 L99.0241302,0 C105.147864,-4.67762524e-15 110.11213,4.96426669 110.11213,11.088 C110.11213,11.3714703 110.10126,11.6548363 110.079542,11.9374734 L103.855155,92.9443305 C103.411247,98.7215453 98.5939868,103.182857 92.7997427,103.182857 L9.4452,103.182857 C4.22876008,103.182857 6.38829645e-16,98.9540971 0,93.7376571 Z" id="Path" fill="#BFE7FF"></path>
                        <path d="M69.5030079,1.56342235 L63.1961096,83.4221279 C62.7510336,89.1983365 57.9342102,93.6582857 52.1408797,93.6582857 L0.15785132,93.6582857 L0.00172950146,93.6559136 C0.000578230162,93.5952699 7.4604351e-18,93.5344858 0,93.4735668 C-6.37170347e-16,88.270676 4.21777629,84.0528997 9.42066701,84.0528997 L47.0706042,84.0528997 C52.790954,84.0528997 57.572413,79.7012309 58.1096041,74.0061603 L64.1426164,10.0467394 C64.4856468,6.41007842 66.5593309,3.32120641 69.5030079,1.56342235 Z" id="Combined-Shape" fill="#91D6FF"></path>
                    </g>
                </g>
            </g>
        </g>
    </g>
</svg>
